<svg width="21" height="17" viewBox="0 0 21 17" fill="none" xmlns="http://www.w3.org/2000/svg">
  <path
    d="M2.01558 5.24008C2.28123 5.43321 3.08199 6.00683 4.41789 6.96063C5.75384 7.91444 6.77727 8.64884 7.48822 9.16389C7.56633 9.22034 7.73228 9.34307 7.98615 9.53223C8.24005 9.72152 8.45103 9.87448 8.6189 9.99116C8.7869 10.1078 8.99 10.2386 9.22839 10.3835C9.4667 10.5282 9.69134 10.637 9.90227 10.7091C10.1132 10.7818 10.3085 10.8178 10.4882 10.8178H10.5H10.5118C10.6915 10.8178 10.8868 10.7817 11.0978 10.7091C11.3087 10.637 11.5335 10.5281 11.7716 10.3835C12.0098 10.2385 12.2129 10.1077 12.3809 9.99116C12.5489 9.87448 12.7597 9.72152 13.0137 9.53223C13.2676 9.3429 13.4337 9.22034 13.5118 9.16389C14.2304 8.64884 16.0587 7.34078 18.9961 5.23982C19.5664 4.82949 20.0429 4.33436 20.4256 3.75478C20.8086 3.17545 21 2.5677 21 1.93188C21 1.40055 20.8143 0.945725 20.4432 0.567443C20.0721 0.189077 19.6326 0 19.1249 0H1.87492C1.2734 0 0.810485 0.20925 0.486266 0.627749C0.162089 1.04633 0 1.56954 0 2.19733C0 2.70443 0.214914 3.25394 0.644538 3.84553C1.07412 4.43716 1.53129 4.90205 2.01558 5.24008Z"
    fill="#8D84A1"/>
  <path
    d="M19.8279 6.53184C17.2657 8.31862 15.3202 9.70724 13.9922 10.6974C13.5469 11.0354 13.1857 11.2992 12.9082 11.4882C12.6308 11.6774 12.2619 11.8705 11.8008 12.0676C11.34 12.2651 10.9105 12.3635 10.512 12.3635H10.5H10.4882C10.0898 12.3635 9.66006 12.2651 9.19921 12.0676C8.73835 11.8705 8.36914 11.6774 8.0918 11.4882C7.81453 11.2992 7.45317 11.0354 7.00791 10.6974C5.95316 9.90059 4.01179 8.51188 1.18371 6.53184C0.738286 6.22617 0.343756 5.8758 0 5.48145V15.0679C0 15.5995 0.183515 16.054 0.550749 16.4324C0.917901 16.8108 1.35939 17 1.87504 17H19.1251C19.6406 17 20.0821 16.8108 20.4493 16.4324C20.8166 16.0539 21 15.5995 21 15.0679V5.48145C20.664 5.86763 20.2735 6.21801 19.8279 6.53184Z"
    fill="#8D84A1"/>
</svg>
