<svg width="18" height="18" viewBox="0 0 18 18" fill="none" xmlns="http://www.w3.org/2000/svg">
  <path
    d="M16.6709 0H1.32998C0.595392 0 0 0.577223 0 1.28966V16.7098C0 17.4223 0.595602 18 1.32998 18H16.6709C17.4053 18 18 17.4219 18 16.7098V1.28966C18 0.577432 17.4053 0 16.6709 0ZM5.45709 15.0672H2.73742V6.94044H5.45709V15.0672ZM4.09752 5.83019H4.07924C3.16721 5.83019 2.576 5.20647 2.576 4.42561C2.576 3.62902 3.18458 3.02221 4.11468 3.02221C5.04487 3.02221 5.61704 3.62885 5.63512 4.42561C5.63512 5.20664 5.04508 5.83019 4.09752 5.83019ZM15.2607 15.0672H12.5419V10.7191C12.5419 9.62656 12.148 8.88106 11.1648 8.88106C10.4126 8.88106 9.96612 9.38401 9.77005 9.86958C9.6974 10.043 9.67941 10.2856 9.67941 10.5278V15.0671H6.96112C6.96112 15.0671 6.99669 7.70251 6.96112 6.94032H9.67982V8.09246C10.0407 7.53884 10.6857 6.74911 12.1294 6.74911C13.9189 6.74911 15.2607 7.90996 15.2607 10.4073V15.0672ZM9.66225 8.11828C9.66689 8.11067 9.67338 8.1015 9.67982 8.09259V8.11828H9.66225Z"
    fill="#8D84A1"/>
</svg>
