<svg width="88" height="80" viewBox="0 0 88 80" fill="none" xmlns="http://www.w3.org/2000/svg">
  <path
    d="M24.0438 6.4804L25.9612 5.91219C25.6451 4.85378 24.5303 4.25016 23.4713 4.56396C22.4123 4.87776 21.8101 5.99015 22.1263 7.04857L24.0438 6.4804ZM8.65436 44.7836C7.58718 45.0686 6.95497 46.1642 7.24228 47.2307C7.5296 48.2973 8.62763 48.9308 9.69481 48.6459L8.65436 44.7836ZM40.3338 74.0421C40.6235 75.108 41.723 75.7391 42.7895 75.4518C43.8561 75.1644 44.4858 74.0674 44.1961 73.0015L40.3338 74.0421ZM57.7989 35.6839C58.8647 35.3941 59.492 34.2956 59.1998 33.2304C58.9077 32.1651 57.8068 31.5365 56.741 31.8263L57.7989 35.6839ZM22.1263 7.04861C24.4528 14.8368 25.75 23.116 24.1307 30.0022C23.3299 33.4074 21.8231 36.4431 19.3896 38.9394C16.9555 41.4363 13.5004 43.4895 8.65436 44.7836L9.69481 48.6459C15.1165 47.1981 19.2435 44.825 22.2595 41.7312C25.2762 38.6367 27.0877 34.9174 28.0269 30.9233C29.8876 23.0109 28.3517 13.9147 25.9612 5.91219L22.1263 7.04861ZM9.69481 48.6459C15.2135 47.1722 19.7737 47.9788 23.5691 49.9636C27.4175 51.9761 30.5794 55.2563 33.1036 58.8542C35.6215 62.443 37.4358 66.249 38.6233 69.1772C39.2151 70.6365 39.6464 71.8661 39.9284 72.7256C40.0693 73.1551 40.1726 73.4913 40.2397 73.7168C40.2733 73.8295 40.2978 73.9145 40.3134 73.9694C40.3213 73.9969 40.3268 74.0169 40.3302 74.0291C40.3319 74.0352 40.3331 74.0394 40.3337 74.0415C40.334 74.0426 40.3341 74.0432 40.3342 74.0433C40.3342 74.0434 40.3341 74.0431 40.3341 74.0431C40.334 74.0427 40.3338 74.0421 42.265 73.5218C44.1961 73.0015 44.1959 73.0007 44.1956 72.9997C44.1955 72.9992 44.1952 72.9982 44.1949 72.9972C44.1944 72.9953 44.1937 72.9929 44.1929 72.9899C44.1913 72.9841 44.1892 72.9762 44.1864 72.9663C44.1809 72.9466 44.1732 72.9191 44.1632 72.8839C44.1432 72.8135 44.114 72.7126 44.0756 72.5835C43.9987 72.3253 43.8845 71.9539 43.7314 71.4873C43.4254 70.5545 42.9632 69.2381 42.3323 67.6823C41.0745 64.5804 39.1272 60.4801 36.3797 56.564C33.6386 52.6571 30.0316 48.8341 25.4201 46.4225C20.7556 43.9833 15.1649 43.0451 8.65436 44.7836L9.69481 48.6459ZM22.1263 7.04857C24.5 14.9953 27.7813 23.6039 33.272 29.5061C36.0494 32.4916 39.4217 34.8186 43.5415 35.995C47.6603 37.1712 52.3833 37.1563 57.7989 35.6839L56.741 31.8263C51.8984 33.1429 47.9303 33.0924 44.6347 32.1514C41.3401 31.2106 38.5749 29.3391 36.2014 26.7877C31.3904 21.6162 28.3168 13.7984 25.9612 5.91223L22.1263 7.04857ZM56.741 31.8263C50.2366 33.5948 45.8827 37.2125 43.089 41.6613C40.3271 46.0596 39.1478 51.1723 38.7591 55.9226C38.3695 60.684 38.7645 65.2026 39.2493 68.5129C39.4924 70.1732 39.76 71.542 39.9682 72.5012C40.0724 72.981 40.1618 73.3591 40.2262 73.6206C40.2584 73.7514 40.2843 73.8532 40.3027 73.924C40.3119 73.9594 40.3192 73.9871 40.3244 74.0069C40.327 74.0168 40.3291 74.0247 40.3307 74.0305C40.3315 74.0335 40.3322 74.0359 40.3327 74.0378C40.3329 74.0388 40.3332 74.0399 40.3334 74.0403C40.3336 74.0413 40.3338 74.0421 42.265 73.5218C44.1961 73.0015 44.1962 73.002 44.1964 73.0025C44.1964 73.0024 44.1964 73.0027 44.1964 73.0027C44.1964 73.0026 44.1962 73.002 44.1959 73.0009C44.1954 72.9987 44.1942 72.9946 44.1926 72.9884C44.1894 72.9762 44.1841 72.9561 44.1769 72.9285C44.1626 72.8732 44.1407 72.7875 44.1126 72.6733C44.0564 72.4449 43.9753 72.1027 43.8794 71.6611C43.6876 70.7773 43.4374 69.4989 43.2093 67.9416C42.7517 64.8168 42.391 60.6191 42.7481 56.2558C43.106 51.8813 44.1756 47.4608 46.4806 43.7902C48.7539 40.1701 52.2848 37.1831 57.7989 35.6839L56.741 31.8263Z"
    fill="url(#paint0_linear)"/>
  <path d="M13.2295 60.8357V74.7262" stroke="url(#paint1_linear)" stroke-width="4" stroke-linecap="round" stroke-linejoin="round"/>
  <path d="M6.25391 67.781L20.205 67.781" stroke="url(#paint2_linear)" stroke-width="4" stroke-linecap="round" stroke-linejoin="round"/>
  <path d="M81.7607 26.3642L71.2828 36.7966" stroke="url(#paint3_linear)" stroke-width="4" stroke-linecap="round" stroke-linejoin="round"/>
  <path d="M71.2861 26.3642L81.7641 36.7966" stroke="url(#paint4_linear)" stroke-width="4" stroke-linecap="round" stroke-linejoin="round"/>
  <ellipse cx="68.0374" cy="60.8356" rx="9.9651" ry="9.92182" stroke="url(#paint5_linear)" stroke-width="4" stroke-linecap="round" stroke-linejoin="round"/>
  <defs>
    <linearGradient id="paint0_linear" x1="24.0478" y1="6.47931" x2="42.1218" y2="73.5604" gradientUnits="userSpaceOnUse">
      <stop stop-color="#FFE974"/>
      <stop offset="1" stop-color="#EBA471"/>
    </linearGradient>
    <linearGradient id="paint1_linear" x1="13.7295" y1="60.8357" x2="13.7295" y2="74.7262" gradientUnits="userSpaceOnUse">
      <stop stop-color="#FFE974"/>
      <stop offset="1" stop-color="#EBA471"/>
    </linearGradient>
    <linearGradient id="paint2_linear" x1="13.2295" y1="60.281" x2="13.6597" y2="75.2853" gradientUnits="userSpaceOnUse">
      <stop stop-color="#FFE974"/>
      <stop offset="1" stop-color="#EBA471"/>
    </linearGradient>
    <linearGradient id="paint3_linear" x1="79.1552" y1="25.7233" x2="82.3118" y2="35.3069" gradientUnits="userSpaceOnUse">
      <stop stop-color="#FFE974"/>
      <stop offset="1" stop-color="#EBA471"/>
    </linearGradient>
    <linearGradient id="paint4_linear" x1="75.1855" y1="25.4855" x2="71.6343" y2="36.267" gradientUnits="userSpaceOnUse">
      <stop stop-color="#FFE974"/>
      <stop offset="1" stop-color="#EBA471"/>
    </linearGradient>
    <linearGradient id="paint5_linear" x1="68.0374" y1="50.9138" x2="68.0374" y2="70.7575" gradientUnits="userSpaceOnUse">
      <stop stop-color="#FFE974"/>
      <stop offset="1" stop-color="#EBA471"/>
    </linearGradient>
  </defs>
</svg>
