<svg width="858" height="702" viewBox="0 0 858 702" fill="none" xmlns="http://www.w3.org/2000/svg">
  <rect x="700" y="534.33" width="227.176" height="165.076" rx="15.3039" stroke="#302C37" stroke-width="4"/>
  <path d="M846.23 555.822H904.515" stroke="#302C37" stroke-width="4" stroke-linecap="round" stroke-linejoin="round"/>
  <path d="M719.94 628.593H778.225" stroke="#302C37" stroke-width="4" stroke-linecap="round" stroke-linejoin="round"/>
  <path d="M846.23 567.725H900.241" stroke="#302C37" stroke-width="4" stroke-linecap="round" stroke-linejoin="round"/>
  <path d="M724.222 640.496H778.233" stroke="#302C37" stroke-width="4" stroke-linecap="round" stroke-linejoin="round"/>
  <path d="M846.23 579.899H884.24" stroke="#302C37" stroke-width="4" stroke-linecap="round" stroke-linejoin="round"/>
  <path d="M740.275 652.669H778.285" stroke="#302C37" stroke-width="4" stroke-linecap="round" stroke-linejoin="round"/>
  <rect x="718.729" y="552.996" width="109.18" height="56.8672" rx="6.02594" stroke="#302C37" stroke-width="4"/>
  <mask id="mask0" mask-type="alpha" maskUnits="userSpaceOnUse" x="716" y="550" width="114" height="62">
    <rect x="718.729" y="552.996" width="109.18" height="56.8672" rx="6.02594" fill="white" stroke="white" stroke-width="4"/>
  </mask>
  <g mask="url(#mask0)">
    <path d="M718.87 554.243L827.769 608.617" stroke="#302C37" stroke-width="4" stroke-linecap="square"/>
    <path d="M827.77 554.243L718.871 608.617" stroke="#302C37" stroke-width="4" stroke-linecap="square"/>
  </g>
  <rect x="795.788" y="625.226" width="109.18" height="56.8673" rx="6.02594" stroke="#719AEB" stroke-width="4"/>
  <mask id="mask1" mask-type="alpha" maskUnits="userSpaceOnUse" x="793" y="623" width="114" height="62">
    <rect x="795.788" y="625.226" width="109.18" height="56.8673" rx="6.02594" fill="white" stroke="white" stroke-width="4"/>
  </mask>
  <g mask="url(#mask1)">
    <path d="M795.929 626.472L904.828 680.847" stroke="#719AEB" stroke-width="4" stroke-linecap="square"/>
    <path d="M904.827 626.472L795.928 680.847" stroke="#719AEB" stroke-width="4" stroke-linecap="square"/>
  </g>
  <rect x="806.491" y="265.785" width="89.1125" height="109.349" rx="15.3039" stroke="#302C37" stroke-width="4"/>
  <rect x="2" y="-2" width="29.7365" height="30.0727" rx="14.8682" transform="matrix(1 0 0 -1 834.18 314.074)" stroke="#302C37" stroke-width="4"/>
  <path d="M821.81 334.202H880.094" stroke="#302C37" stroke-width="4" stroke-linecap="round" stroke-linejoin="round"/>
  <path d="M824.059 344.878H878.07" stroke="#302C37" stroke-width="4" stroke-linecap="round" stroke-linejoin="round"/>
  <path d="M832.155 355.554H870.165" stroke="#302C37" stroke-width="4" stroke-linecap="round" stroke-linejoin="round"/>
  <rect x="806.491" y="138.91" width="89.1125" height="109.349" rx="15.3039" stroke="#302C37" stroke-width="4"/>
  <rect x="2" y="-2" width="29.7365" height="30.0727" rx="14.8682" transform="matrix(1 0 0 -1 834.18 187.2)" stroke="#302C37" stroke-width="4"/>
  <path d="M821.81 207.327H880.094" stroke="#302C37" stroke-width="4" stroke-linecap="round" stroke-linejoin="round"/>
  <path d="M824.059 218.004H878.07" stroke="#302C37" stroke-width="4" stroke-linecap="round" stroke-linejoin="round"/>
  <path d="M832.155 228.68H870.165" stroke="#302C37" stroke-width="4" stroke-linecap="round" stroke-linejoin="round"/>
  <rect x="700" y="171.914" width="89.1126" height="109.349" rx="15.3039" stroke="#302C37" stroke-width="4"/>
  <rect x="2" y="-2" width="29.7365" height="30.0727" rx="14.8682" transform="matrix(1 0 0 -1 727.688 220.203)" stroke="#302C37" stroke-width="4"/>
  <path d="M715.318 240.331H773.603" stroke="#302C37" stroke-width="4" stroke-linecap="round" stroke-linejoin="round"/>
  <path d="M717.567 251.007H771.578" stroke="#302C37" stroke-width="4" stroke-linecap="round" stroke-linejoin="round"/>
  <path d="M725.664 261.683H763.674" stroke="#302C37" stroke-width="4" stroke-linecap="round" stroke-linejoin="round"/>
  <rect x="493" y="433.017" width="135.401" height="57.1329" rx="21.2785" stroke="#302C37" stroke-width="4" stroke-linecap="round" stroke-linejoin="round"/>
  <path d="M517.912 455.776H575.601" stroke="#302C37" stroke-width="4" stroke-linecap="round" stroke-linejoin="round"/>
  <path
    fill-rule="evenodd"
    clip-rule="evenodd"
    d="M598.197 470.142C602.957 470.142 606.815 466.242 606.815 461.431C606.815 456.62 602.957 452.719 598.197 452.719C593.438 452.719 589.579 456.62 589.579 461.431C589.579 466.242 593.438 470.142 598.197 470.142Z"
    stroke="#302C37"
    stroke-width="4"
    stroke-linecap="round"
    stroke-linejoin="round"/>
  <path d="M539.382 467.086H575.367" stroke="#302C37" stroke-width="4" stroke-linecap="round" stroke-linejoin="round"/>
  <rect x="493" y="503.626" width="135.401" height="57.1329" rx="21.2785" stroke="#302C37" stroke-width="4" stroke-linecap="round" stroke-linejoin="round"/>
  <path d="M545.732 526.384H603.422" stroke="#302C37" stroke-width="4" stroke-linecap="round" stroke-linejoin="round"/>
  <path
    fill-rule="evenodd"
    clip-rule="evenodd"
    d="M523.204 540.751C527.964 540.751 531.822 536.85 531.822 532.039C531.822 527.228 527.964 523.328 523.204 523.328C518.444 523.328 514.586 527.228 514.586 532.039C514.586 536.85 518.444 540.751 523.204 540.751Z"
    stroke="#302C37"
    stroke-width="4"
    stroke-linecap="round"
    stroke-linejoin="round"/>
  <path d="M545.732 537.694H581.718" stroke="#302C37" stroke-width="4" stroke-linecap="round" stroke-linejoin="round"/>
  <rect x="493" y="362.409" width="135.401" height="57.133" rx="21.2785" stroke="#302C37" stroke-width="4" stroke-linecap="round" stroke-linejoin="round"/>
  <path d="M545.732 385.168H603.422" stroke="#302C37" stroke-width="4" stroke-linecap="round" stroke-linejoin="round"/>
  <path
    fill-rule="evenodd"
    clip-rule="evenodd"
    d="M523.204 399.534C527.964 399.534 531.822 395.634 531.822 390.822C531.822 386.011 527.964 382.111 523.204 382.111C518.444 382.111 514.586 386.011 514.586 390.822C514.586 395.634 518.444 399.534 523.204 399.534Z"
    stroke="#302C37"
    stroke-width="4"
    stroke-linecap="round"
    stroke-linejoin="round"/>
  <path d="M545.732 396.477H581.718" stroke="#302C37" stroke-width="4" stroke-linecap="round" stroke-linejoin="round"/>
  <rect x="457" y="87.7571" width="20.2083" height="20.4842" rx="10.1041" stroke="#302C37" stroke-width="4" stroke-linecap="round" stroke-linejoin="round"/>
  <path d="M491.45 91.2338H662.409" stroke="#302C37" stroke-width="4" stroke-linecap="round" stroke-linejoin="round"/>
  <path d="M491.45 104.12H601.985" stroke="#302C37" stroke-width="4" stroke-linecap="round" stroke-linejoin="round"/>
  <rect x="457" y="126.416" width="20.2083" height="20.4842" rx="10.1041" stroke="#302C37" stroke-width="4" stroke-linecap="round" stroke-linejoin="round"/>
  <path d="M491.45 129.893H662.409" stroke="#302C37" stroke-width="4" stroke-linecap="round" stroke-linejoin="round"/>
  <path d="M491.45 142.78H601.985" stroke="#302C37" stroke-width="4" stroke-linecap="round" stroke-linejoin="round"/>
  <rect x="457" y="2.38434" width="263.565" height="28.2161" rx="14.1081" stroke="#302C37" stroke-width="4" stroke-linecap="round" stroke-linejoin="round"/>
  <rect x="457" y="49.0977" width="20.2083" height="20.4843" rx="10.1041" stroke="#302C37" stroke-width="4" stroke-linecap="round" stroke-linejoin="round"/>
  <path d="M491.45 52.8966H662.409" stroke="#302C37" stroke-width="4" stroke-linecap="round" stroke-linejoin="round"/>
  <path d="M491.45 65.4609H601.985" stroke="#302C37" stroke-width="4" stroke-linecap="round" stroke-linejoin="round"/>
  <rect x="3.63995" y="2.15722" width="24.0209" height="24.3184" transform="matrix(0.968141 -0.250405 0.245177 0.969478 728.363 47.4217)" stroke="#9782EA" stroke-width="6"/>
  <path
    d="M586.928 609.24L596.648 614.851C596.648 614.851 596.648 614.851 596.648 614.852C597.23 615.186 597.664 615.534 597.922 615.904C598.184 616.268 598.309 616.704 598.309 617.199C598.309 617.771 598.163 618.259 597.849 618.641C597.53 619.029 597.101 619.222 596.586 619.222C596.366 619.222 596.133 619.178 595.887 619.096L595.883 619.095C595.648 619.013 595.365 618.88 595.039 618.701L595.037 618.7L582.816 611.854L582.809 611.849L582.809 611.849C582.759 611.819 582.671 611.773 582.538 611.711L582.529 611.707L582.521 611.703C581.391 611.067 580.75 610.277 580.75 609.316C580.75 608.343 581.415 607.538 582.584 606.881L582.694 606.797L582.708 606.787L582.722 606.778L595.036 599.8L595.039 599.798L595.039 599.798C595.449 599.574 595.77 599.42 595.991 599.348C596.202 599.268 596.402 599.221 596.586 599.221C597.101 599.221 597.53 599.414 597.849 599.802C598.163 600.184 598.309 600.672 598.309 601.244C598.309 601.743 598.177 602.19 597.907 602.575L586.928 609.24ZM586.928 609.24L596.649 603.629L596.65 603.628C597.222 603.293 597.65 602.945 597.907 602.575L586.928 609.24ZM603.11 622.979L603.108 622.977C602.697 622.563 602.492 622.046 602.492 621.443C602.492 621.031 602.646 620.429 602.926 619.66L602.93 619.65L602.93 619.65L602.96 619.578L612.031 595.95C612.031 595.95 612.031 595.949 612.031 595.949C612.321 595.18 612.596 594.618 612.862 594.295C613.139 593.959 613.485 593.77 613.893 593.77C614.432 593.77 614.911 593.984 615.324 594.388C615.746 594.802 615.957 595.32 615.957 595.925C615.957 596.174 615.923 596.433 615.857 596.702C615.791 596.969 615.668 597.332 615.491 597.787L603.11 622.979ZM603.11 622.979C603.524 623.385 604.009 623.598 604.557 623.598C604.965 623.598 605.311 623.409 605.587 623.073C605.853 622.75 606.123 622.201 606.403 621.456C606.404 621.456 606.404 621.456 606.404 621.456L615.491 597.788L603.11 622.979ZM631.103 609.24L621.367 603.629L621.364 603.627L621.364 603.627C620.802 603.292 620.377 602.944 620.111 602.579L620.105 602.571L620.106 602.571C619.848 602.186 619.722 601.74 619.722 601.244C619.722 600.674 619.862 600.188 620.164 599.806C620.472 599.416 620.892 599.221 621.399 599.221C621.601 599.221 621.816 599.266 622.041 599.348C622.278 599.431 622.597 599.583 622.992 599.798L622.996 599.8L622.996 599.8L635.278 606.779L635.293 606.787L635.306 606.797L635.416 606.881C636.585 607.538 637.25 608.343 637.25 609.316C637.25 610.287 636.608 611.074 635.475 611.696C635.378 611.766 635.286 611.824 635.202 611.861L622.949 618.699C622.949 618.699 622.948 618.7 622.948 618.7C622.631 618.88 622.347 619.013 622.1 619.096M631.103 609.24L622.098 619.096C622.098 619.096 622.099 619.096 622.1 619.096M631.103 609.24L621.367 614.851M631.103 609.24L621.367 614.851M622.1 619.096C621.861 619.179 621.627 619.222 621.399 619.222C620.896 619.222 620.476 619.036 620.167 618.66L620.164 618.656L620.164 618.656C619.861 618.273 619.722 617.779 619.722 617.199C619.722 616.706 619.841 616.27 620.092 615.907L620.092 615.906C620.35 615.535 620.785 615.186 621.367 614.851M622.1 619.096L621.367 614.851"
    fill="#FFE974"
    stroke="#FFE974"
    stroke-width="0.5"/>
  <path d="M644.722 219.448L622.987 213.279L639.137 197.328L644.722 219.448Z" stroke="#EBA471" stroke-width="6"/>
  <path d="M787.789 583.655L793.889 561.674L809.662 578.007L787.789 583.655Z" stroke="#719AEB" stroke-width="6"/>
  <path d="M614.235 504.303L608.892 482.121L630.559 488.532L614.235 504.303Z" stroke="#EB7187" stroke-width="6"/>
  <path d="M532 390.748C532 395.546 528.163 399.378 523.5 399.378C518.837 399.378 515 395.546 515 390.748C515 385.95 518.837 382.118 523.5 382.118C528.163 382.118 532 385.95 532 390.748Z" stroke="#EB7187" stroke-width="6"/>
  <path d="M728 385.186C728 389.984 724.163 393.816 719.5 393.816C714.837 393.816 711 389.984 711 385.186C711 380.388 714.837 376.556 719.5 376.556C724.163 376.556 728 380.388 728 385.186Z" stroke="#EBA471" stroke-width="6"/>
  <path d="M824 160.17C824 151.793 817.284 145.001 809 145.001C800.716 145.001 794 151.793 794 160.17" stroke="#719AEB" stroke-width="6"/>
  <path d="M806 443.336L794 455.471" stroke="#9782EA" stroke-width="6" stroke-linecap="round" stroke-linejoin="round"/>
  <path d="M794 443.336L806 455.471" stroke="#9782EA" stroke-width="6" stroke-linecap="round" stroke-linejoin="round"/>
  <path d="M529 274.968L529 292.131" stroke="#9782EA" stroke-width="6" stroke-linecap="round" stroke-linejoin="round"/>
  <path d="M520.515 283.55L537.485 283.55" stroke="#9782EA" stroke-width="6" stroke-linecap="round" stroke-linejoin="round"/>
  <path d="M491.45 91.2338H662.409" stroke="#9682EA" stroke-width="4" stroke-linecap="round" stroke-linejoin="round"/>
  <path d="M491.401 104.111H601.936" stroke="#9682EA" stroke-width="4" stroke-linecap="round" stroke-linejoin="round"/>
  <rect x="457" y="87.7571" width="20.2083" height="20.4843" rx="10.1041" stroke="#9682EA" stroke-width="4" stroke-linecap="round" stroke-linejoin="round"/>
  <rect x="3" y="-3" width="27.7365" height="28.0726" rx="13.8682" transform="matrix(1 0 0 -1 727.688 218.203)" stroke="#FFE974" stroke-width="6"/>
</svg>
