<svg width="883" height="684" viewBox="0 0 883 684" fill="none" xmlns="http://www.w3.org/2000/svg">
<rect x="731" y="518" width="227.176" height="163.186" rx="15.3039" stroke="#302C37" stroke-width="4"/>
<path d="M877 539.225H935.284" stroke="#302C37" stroke-width="4" stroke-linecap="round" stroke-linejoin="round"/>
<path d="M751 611.225H809.284" stroke="#302C37" stroke-width="4" stroke-linecap="round" stroke-linejoin="round"/>
<path d="M877 551.225H931.011" stroke="#302C37" stroke-width="4" stroke-linecap="round" stroke-linejoin="round"/>
<path d="M755 623.225H809.011" stroke="#302C37" stroke-width="4" stroke-linecap="round" stroke-linejoin="round"/>
<path d="M877 563.225H915.01" stroke="#302C37" stroke-width="4" stroke-linecap="round" stroke-linejoin="round"/>
<path d="M771 635.225H809.01" stroke="#302C37" stroke-width="4" stroke-linecap="round" stroke-linejoin="round"/>
<rect x="750" y="536" width="109.18" height="56.187" rx="6.02594" stroke="#302C37" stroke-width="4"/>
<mask id="mask0" mask-type="alpha" maskUnits="userSpaceOnUse" x="748" y="534" width="114" height="61">
<rect x="750" y="536" width="109.18" height="56.187" rx="6.02594" fill="white" stroke="white" stroke-width="4"/>
</mask>
<g mask="url(#mask0)">
<path d="M750 537L858.899 590.767" stroke="#302C37" stroke-width="4" stroke-linecap="square"/>
<path d="M859 537L750.101 590.767" stroke="#302C37" stroke-width="4" stroke-linecap="square"/>
</g>
<rect x="827" y="608" width="109.18" height="56.187" rx="6.02594" stroke="#719AEB" stroke-width="4"/>
<mask id="mask1" mask-type="alpha" maskUnits="userSpaceOnUse" x="825" y="605" width="114" height="62">
<rect x="827" y="608" width="109.18" height="56.187" rx="6.02594" fill="white" stroke="white" stroke-width="4"/>
</mask>
<g mask="url(#mask1)">
<path d="M827 609L935.899 662.767" stroke="#719AEB" stroke-width="4" stroke-linecap="square"/>
<path d="M936 609L827.101 662.767" stroke="#719AEB" stroke-width="4" stroke-linecap="square"/>
</g>
<rect x="831" y="248" width="89.1126" height="108.082" rx="15.3039" stroke="#302C37" stroke-width="4"/>
<rect x="2" y="-2" width="29.7364" height="29.6918" rx="14.8459" transform="matrix(1 0 0 -1 859 296)" stroke="#302C37" stroke-width="4"/>
<path d="M846 315.225H904.284" stroke="#302C37" stroke-width="4" stroke-linecap="round" stroke-linejoin="round"/>
<path d="M849 326.225H903.011" stroke="#302C37" stroke-width="4" stroke-linecap="round" stroke-linejoin="round"/>
<path d="M857 337.225H895.01" stroke="#302C37" stroke-width="4" stroke-linecap="round" stroke-linejoin="round"/>
<rect x="831" y="123" width="89.1126" height="108.082" rx="15.3039" stroke="#302C37" stroke-width="4"/>
<rect x="2" y="-2" width="29.7364" height="29.6918" rx="14.8459" transform="matrix(1 0 0 -1 859 171)" stroke="#302C37" stroke-width="4"/>
<path d="M846 190.225H904.284" stroke="#302C37" stroke-width="4" stroke-linecap="round" stroke-linejoin="round"/>
<path d="M849 201.225H903.011" stroke="#302C37" stroke-width="4" stroke-linecap="round" stroke-linejoin="round"/>
<path d="M857 212.225H895.01" stroke="#302C37" stroke-width="4" stroke-linecap="round" stroke-linejoin="round"/>
<rect x="725" y="156" width="89.1126" height="108.082" rx="15.3039" stroke="#302C37" stroke-width="4"/>
<rect x="2" y="-2" width="29.7364" height="29.6918" rx="14.8459" transform="matrix(1 0 0 -1 753 204)" stroke="#302C37" stroke-width="4"/>
<path d="M740 223.225H798.284" stroke="#302C37" stroke-width="4" stroke-linecap="round" stroke-linejoin="round"/>
<path d="M743 234.225H797.011" stroke="#302C37" stroke-width="4" stroke-linecap="round" stroke-linejoin="round"/>
<path d="M751 245.225H789.01" stroke="#302C37" stroke-width="4" stroke-linecap="round" stroke-linejoin="round"/>
<rect x="2" y="466" width="135.401" height="56.4496" rx="21.2785" stroke="#302C37" stroke-width="4" stroke-linecap="round" stroke-linejoin="round"/>
<path d="M27 488.72H84.6892" stroke="#302C37" stroke-width="4" stroke-linecap="round" stroke-linejoin="round"/>
<path fill-rule="evenodd" clip-rule="evenodd" d="M107.618 502.228C112.378 502.228 116.236 498.371 116.236 493.614C116.236 488.857 112.378 485 107.618 485C102.858 485 99 488.857 99 493.614C99 498.371 102.858 502.228 107.618 502.228Z" stroke="#302C37" stroke-width="4" stroke-linecap="round" stroke-linejoin="round"/>
<path d="M48 499.302H83.9856" stroke="#302C37" stroke-width="4" stroke-linecap="round" stroke-linejoin="round"/>
<rect x="2" y="536" width="135.401" height="56.4496" rx="21.2785" stroke="#302C37" stroke-width="4" stroke-linecap="round" stroke-linejoin="round"/>
<path d="M55 558.72H112.689" stroke="#302C37" stroke-width="4" stroke-linecap="round" stroke-linejoin="round"/>
<path fill-rule="evenodd" clip-rule="evenodd" d="M32.6181 572.228C37.3777 572.228 41.2362 568.371 41.2362 563.614C41.2362 558.857 37.3777 555 32.6181 555C27.8584 555 24 558.857 24 563.614C24 568.371 27.8584 572.228 32.6181 572.228Z" stroke="#302C37" stroke-width="4" stroke-linecap="round" stroke-linejoin="round"/>
<path d="M55 569.302H90.9856" stroke="#302C37" stroke-width="4" stroke-linecap="round" stroke-linejoin="round"/>
<rect x="2" y="396" width="135.401" height="56.4496" rx="21.2785" stroke="#302C37" stroke-width="4" stroke-linecap="round" stroke-linejoin="round"/>
<path d="M55 418.72H112.689" stroke="#302C37" stroke-width="4" stroke-linecap="round" stroke-linejoin="round"/>
<path d="M55 429.302H90.9856" stroke="#302C37" stroke-width="4" stroke-linecap="round" stroke-linejoin="round"/>
<rect x="2" y="148" width="20.2083" height="20.2106" rx="10.1041" stroke="#302C37" stroke-width="4" stroke-linecap="round" stroke-linejoin="round"/>
<path d="M36.1375 151.867H207.097" stroke="#302C37" stroke-width="4" stroke-linecap="round" stroke-linejoin="round"/>
<path d="M36.1375 164.867H146.673" stroke="#302C37" stroke-width="4" stroke-linecap="round" stroke-linejoin="round"/>
<rect x="2" y="187" width="20.2083" height="20.2106" rx="10.1041" stroke="#302C37" stroke-width="4" stroke-linecap="round" stroke-linejoin="round"/>
<path d="M36.1375 189.867H207.097" stroke="#302C37" stroke-width="4" stroke-linecap="round" stroke-linejoin="round"/>
<path d="M36.1375 202.867H146.673" stroke="#302C37" stroke-width="4" stroke-linecap="round" stroke-linejoin="round"/>
<rect x="2" y="64" width="263.565" height="27.856" rx="13.928" stroke="#302C37" stroke-width="4" stroke-linecap="round" stroke-linejoin="round"/>
<rect x="2" y="110" width="20.2083" height="20.2106" rx="10.1041" stroke="#302C37" stroke-width="4" stroke-linecap="round" stroke-linejoin="round"/>
<path d="M36.1375 113.867H207.097" stroke="#302C37" stroke-width="4" stroke-linecap="round" stroke-linejoin="round"/>
<path d="M36.1375 125.867H146.673" stroke="#302C37" stroke-width="4" stroke-linecap="round" stroke-linejoin="round"/>
<rect x="287.151" y="116.199" width="24" height="24" transform="rotate(-14.3461 287.151 116.199)" stroke="#9782EA" stroke-width="6"/>
<path d="M201.098 636.05L191.368 630.505L191.365 630.503C190.803 630.171 190.378 629.827 190.112 629.466L190.106 629.458L190.106 629.458C189.848 629.077 189.722 628.635 189.722 628.143C189.722 627.579 189.862 627.097 190.164 626.718C190.473 626.333 190.893 626.14 191.399 626.14C191.6 626.14 191.815 626.185 192.04 626.266C192.277 626.347 192.596 626.498 192.99 626.71L192.995 626.712L192.995 626.713L205.277 633.613L205.291 633.621L205.305 633.631L205.415 633.714C206.584 634.363 207.25 635.16 207.25 636.125C207.25 637.088 206.607 637.867 205.473 638.482C205.377 638.551 205.284 638.608 205.201 638.644L192.948 645.406C192.948 645.407 192.947 645.407 192.947 645.407C192.63 645.585 192.346 645.717 192.099 645.798C192.098 645.799 192.098 645.799 192.097 645.799L201.098 636.05ZM201.098 636.05L191.368 641.595L201.098 636.05ZM166.647 641.595L156.932 636.05L166.648 630.505L166.649 630.504C167.221 630.173 167.649 629.828 167.906 629.462C168.177 629.08 168.309 628.637 168.309 628.143C168.309 627.577 168.163 627.093 167.848 626.715C167.529 626.331 167.1 626.14 166.586 626.14C166.402 626.14 166.202 626.186 165.992 626.265C165.771 626.336 165.45 626.489 165.04 626.711L165.04 626.711L165.037 626.712L152.723 633.613L152.709 633.621L152.695 633.631L152.585 633.714C151.416 634.363 150.75 635.16 150.75 636.125C150.75 637.078 151.393 637.86 152.522 638.488L152.531 638.492L152.539 638.496C152.672 638.558 152.76 638.603 152.81 638.633L152.81 638.633L152.817 638.637L165.038 645.407L165.04 645.408C165.366 645.585 165.649 645.717 165.884 645.798L165.887 645.799C166.133 645.88 166.367 645.923 166.586 645.923C167.1 645.923 167.529 645.732 167.848 645.348C168.163 644.97 168.309 644.486 168.309 643.92C168.309 643.429 168.184 642.997 167.921 642.637C167.663 642.271 167.229 641.926 166.647 641.595ZM173.109 649.636L173.111 649.639C173.526 650.04 174.01 650.25 174.557 650.25C174.964 650.25 175.31 650.064 175.587 649.731C175.852 649.411 176.123 648.868 176.403 648.131C176.403 648.131 176.403 648.131 176.403 648.131L185.49 624.728C185.49 624.728 185.49 624.728 185.49 624.727C185.667 624.277 185.791 623.917 185.857 623.653C185.923 623.387 185.957 623.13 185.957 622.884C185.957 622.284 185.745 621.771 185.323 621.361C184.91 620.961 184.431 620.75 183.893 620.75C183.486 620.75 183.14 620.936 182.863 621.269C182.597 621.589 182.322 622.145 182.031 622.906C182.031 622.906 182.031 622.906 182.031 622.906L172.96 646.27L172.93 646.342L172.93 646.342L172.927 646.352C172.647 647.112 172.492 647.708 172.492 648.116C172.492 648.714 172.697 649.226 173.109 649.636Z" fill="#FFE974" stroke="#FFE974" stroke-width="0.5"/>
<path d="M708.713 93.5872L687.034 87.503L703.143 71.7704L708.713 93.5872Z" stroke="#EBA471" stroke-width="6"/>
<path d="M818.81 566.713L824.894 545.034L840.626 561.142L818.81 566.713Z" stroke="#719AEB" stroke-width="6"/>
<path d="M122.982 536.452L117.653 514.575L139.263 520.898L122.982 536.452Z" stroke="#EB7187" stroke-width="6"/>
<path d="M41 423.5C41 428.194 37.1944 432 32.5 432C27.8056 432 24 428.194 24 423.5C24 418.806 27.8056 415 32.5 415C37.1944 415 41 418.806 41 423.5Z" stroke="#EB7187" stroke-width="6"/>
<path d="M753 366.5C753 371.194 749.194 375 744.5 375C739.806 375 736 371.194 736 366.5C736 361.805 739.806 358 744.5 358C749.194 358 753 361.805 753 366.5Z" stroke="#EBA471" stroke-width="6"/>
<path d="M849 144C849 135.716 842.284 129 834 129C825.716 129 819 135.716 819 144" stroke="#719AEB" stroke-width="6"/>
<path d="M831 472L819 484" stroke="#9782EA" stroke-width="6" stroke-linecap="round" stroke-linejoin="round"/>
<path d="M819 472L831 484" stroke="#9782EA" stroke-width="6" stroke-linecap="round" stroke-linejoin="round"/>
<path d="M592.485 136.515L592.485 153.485" stroke="#9782EA" stroke-width="6" stroke-linecap="round" stroke-linejoin="round"/>
<path d="M584 145L600.971 145" stroke="#9782EA" stroke-width="6" stroke-linecap="round" stroke-linejoin="round"/>
<path d="M36.1375 151.867H207.097" stroke="#9682EA" stroke-width="4" stroke-linecap="round" stroke-linejoin="round"/>
<path d="M36 165H146.535" stroke="#9682EA" stroke-width="4" stroke-linecap="round" stroke-linejoin="round"/>
<rect x="2" y="148" width="20.2083" height="20.2106" rx="10.1041" stroke="#9682EA" stroke-width="4" stroke-linecap="round" stroke-linejoin="round"/>
<rect x="3" y="-3" width="27.7364" height="27.6918" rx="13.8459" transform="matrix(1 0 0 -1 753 201)" stroke="#FFE974" stroke-width="6"/>
</svg>
