<svg id="Layer_1" data-name="Layer 1" xmlns="http://www.w3.org/2000/svg" viewBox="0 0 938.11 209.78"><defs><style>.cls-1{fill:#939598;}</style></defs><title>pO_Logo</title><path class="cls-1" d="M610.71,102.48a39.11,39.11,0,0,0-39.06,39.07v68.23H583.4V141.55a27.31,27.31,0,1,1,27.31,27.31v11.75a39.06,39.06,0,1,0,0-78.13"/><path class="cls-1" d="M527.28,102.48a39.07,39.07,0,1,0,39.06,39.06,39.11,39.11,0,0,0-39.06-39.06m2.79,11.89a27.32,27.32,0,0,1,0,54.35c-.92.09-1.84.14-2.79.14a27.32,27.32,0,0,1,0-54.63c.95,0,1.87,0,2.79.14"/><path class="cls-1" d="M686.89,135.83a22,22,0,0,0-2.29-.12h-8.81a10.7,10.7,0,1,1,0-21.4h25.35V102.56H675.78a22.45,22.45,0,1,0,0,44.9h8.82a10.71,10.71,0,0,1,0,21.42H659.25v11.76H684.6a21.85,21.85,0,0,0,2.29-.12,22.46,22.46,0,0,0,0-44.68"/><path class="cls-1" d="M106.9,116.55A29,29,0,0,1,122,112.27v-7.84a36.86,36.86,0,0,0-19.72,5.73,37.23,37.23,0,0,0-9.53,8.62V108.36H85V141c0,.19,0,.37,0,.57h0v37.11H92.8V141a29.25,29.25,0,0,1,14.09-24.47"/><path class="cls-1" d="M38.83,104.44A37.15,37.15,0,0,0,1.72,141.55v68.23H9.56V141.55a29.27,29.27,0,1,1,29.27,29.27v7.84a37.11,37.11,0,1,0,0-74.22"/><path class="cls-1" d="M158.48,104.44h0a37.09,37.09,0,1,0,36.35,29.64,37.14,37.14,0,0,0-36.35-29.64m0,66.38a29.27,29.27,0,1,1,28.68-35.17,29.63,29.63,0,0,1,0,11.79,29.34,29.34,0,0,1-28.68,23.38"/><path class="cls-1" d="M269.14,141.55a29.27,29.27,0,1,1-29.27-29.27v-7.83a37.11,37.11,0,1,0,37.1,37.1V73.32h-7.83Z"/><path class="cls-1" d="M354.46,141.55a28.88,28.88,0,0,1-.6,5.89,29.27,29.27,0,0,1-57.95-5.89V108.44h-7.83v33.11a37.54,37.54,0,0,0,.19,3.8,37.16,37.16,0,0,0,36.91,33.31h0a37.08,37.08,0,0,0,37.1-37.11V108.44h-7.83Z"/><path class="cls-1" d="M406.13,170.87a29.27,29.27,0,1,1,0-58.54h20.62v-7.83H406.13a37.11,37.11,0,1,0,0,74.21h20.62v-7.83Z"/><polygon class="cls-1" points="481.19 104.48 462.21 104.48 462.21 73.31 454.38 73.31 454.38 104.48 435.39 104.48 435.39 112.31 454.38 112.31 454.38 178.66 462.21 178.66 462.21 112.31 481.19 112.31 481.19 104.48"/><path class="cls-1" d="M938.1,86.21s0-.07,0-.11a1.3,1.3,0,0,0-.32-.63l-.57-.58C918.43,65.45,899.47,49,880.82,36a1.39,1.39,0,0,0-.56-.21C833.27,3.23,801,1,793.32,1c-1.68,0-2.55.09-2.55.09l0,0a1.3,1.3,0,0,0-.63.27l-.06.06a1.33,1.33,0,0,0-.39.6l-.12.45Q788,7.64,786.69,12.7c-.18.69-.34,1.36-.52,2q-1.07,4.1-2,8.15c-.24,1-.46,2-.69,3-.53,2.27-1,4.53-1.53,6.77-.28,1.29-.53,2.55-.79,3.82-.38,1.85-.75,3.69-1.1,5.52-.3,1.57-.57,3.11-.85,4.65s-.51,2.9-.75,4.33c-.31,1.88-.59,3.71-.86,5.53-.16,1-.32,2.09-.46,3.12-.31,2.24-.59,4.42-.85,6.58-.07.6-.15,1.2-.22,1.8q-.47,4.14-.82,8.09v0h0C769.47,141.82,789,170,790.05,171.54a1.14,1.14,0,0,0,.26.22.78.78,0,0,0,.16.14,1.3,1.3,0,0,0,.65.19,1.33,1.33,0,0,0,.32,0l.16,0q5.35-1.33,10.56-2.74l1.83-.52q4.19-1.16,8.28-2.36l2.8-.86c2.27-.69,4.52-1.39,6.75-2.1l3.63-1.21c1.81-.6,3.62-1.2,5.4-1.82,1.5-.53,3-1.06,4.42-1.59s2.78-1,4.14-1.52c1.78-.67,3.52-1.35,5.24-2l2.89-1.15c2.13-.86,4.2-1.73,6.24-2.61l1.52-.65c66-28.7,81.9-62.16,82.69-63.93,0,0,0,0,0-.06A1.29,1.29,0,0,0,938.1,86.21ZM816,162.49h0c-2.81.87-5.69,1.72-8.62,2.56l-1.9.53q-3.48,1-7.1,1.94l-1.38.36a294.61,294.61,0,0,0,42.47-42.71,164.64,164.64,0,0,0,20.25,20.71A354,354,0,0,1,816,162.49Zm23.45-41.55c-13.08-16.52-22.64-34.71-29.57-51.79a192.68,192.68,0,0,1,28.11-2,230.49,230.49,0,0,1,31.6,2.26C862,88.79,850.94,106.24,839.41,120.95ZM790.44,9c.19,1.21.41,2.59.67,4.09L789,14.56c.36-1.39.72-2.78,1.1-4.19C790.19,9.92,790.32,9.48,790.44,9ZM788,18.44,791.62,16q.62,3.39,1.48,7.46l-7.56,5.1q1-4.5,2.18-9.14C787.8,19.07,787.88,18.76,788,18.44Zm80,48.06c-3.54-.47-7.17-.84-10.85-1.16l18-12.23c-1,3.65-2.22,7.29-3.52,10.92Zm-26.92-2L878.3,39.2q-.93,5-2.21,10L852.86,65C849,64.74,845,64.59,841,64.54Zm37.41-13.69,9.42-6.4q2.91,2.19,5.9,4.52L875.28,61.5C876.46,58,877.47,54.4,878.41,50.85Zm7.18-8.08L879.41,47q.88-3.75,1.58-7.5C882.51,40.54,884,41.62,885.59,42.77ZM836.32,64.51c-4.48,0-8.93.2-13.31.52l47.77-32.45q3.13,2,6.35,4.21Zm-18.77,1c-2.94.3-5.86.65-8.72,1.09-.39-1-.75-1.94-1.12-2.91L861.76,27c2.16,1.27,4.35,2.59,6.6,4Zm-10.8-4.37q-1.28-3.49-2.42-6.87l48-32.56c2.25,1.18,4.57,2.47,6.92,3.81Zm-3.29-9.48q-1.18-3.59-2.19-7l41-27.85c2.36,1.09,4.8,2.28,7.3,3.55Zm-7.3-15.46q.93,3.54,2,7.32l-17.74,12c.48-3.21,1-6.48,1.62-9.85Zm-13.4,5.85q.91-4.8,2-9.8l9-6.06c.52,2.3,1.1,4.74,1.74,7.29ZM799,46.22q1,3.43,2.21,7L778.75,68.45c.33-3,.73-6.14,1.18-9.31ZM800.47,42c-.72-2.52-1.4-5-2-7.33L831.6,12.29q3.77,1.45,7.85,3.24Zm-2.69-10.06q-1-3.84-1.71-7.3L820.16,8.35c2.64.79,5.43,1.71,8.39,2.79Zm-2.31-10.09c-.57-2.73-1.06-5.25-1.46-7.48l13.52-9.13c2.77.53,5.88,1.24,9.31,2.18ZM778.38,71.89,802,55.83q1.15,3.38,2.44,6.86l-10.07,6.84a163,163,0,0,0-16.25,4.7C778.24,73.46,778.3,72.68,778.38,71.89Zm27.06-6.65c.23.61.47,1.21.71,1.82q-2.41.45-4.75.92Zm68.32.49,22.15-15q2.79,2.22,5.64,4.6L881.88,68.72c-2.81-.53-5.72-1-8.68-1.45C873.4,66.76,873.57,66.25,873.76,65.73ZM903.67,57c1.83,1.55,3.68,3.16,5.54,4.79L895.07,71.5c-3.05-.72-6.26-1.41-9.54-2.07Zm7.61,6.59c1.77,1.57,3.55,3.2,5.35,4.85l-9.16,6.24c-2.82-.8-5.82-1.6-8.94-2.38Zm7.34,6.7q2.54,2.38,5.11,4.85l-4.61,3.12c-2.57-.85-5.35-1.73-8.36-2.63Zm7.05,6.75q2.32,2.27,4.67,4.62l1,1c-2.37-.93-5.44-2.06-9-3.31ZM803.77,4.57l-10.25,6.92c-.61-3.67-1-6.32-1.14-7.81h.94A70.8,70.8,0,0,1,803.77,4.57ZM777.9,77.15a181.53,181.53,0,0,1,29.25-7.57c7.1,17.62,17,36.46,30.57,53.51a285.34,285.34,0,0,1-46.24,45.75C788,163.07,773.2,134.67,777.9,77.15Zm84.46,67.5a161.58,161.58,0,0,1-21.24-21.59c11.93-15.13,23.43-33.19,31.15-53.28A271.3,271.3,0,0,1,935,87C931.72,92.92,914.55,119.95,862.35,144.66Z"/></svg>