<svg id="Layer_1" data-name="Layer 1" xmlns="http://www.w3.org/2000/svg" viewBox="0 0 937.63 209.12"><defs><style>.cls-1{fill:#f1f2f2;}</style></defs><title>pO_Logo</title><path class="cls-1" d="M610.23,101.82a39.11,39.11,0,0,0-39.06,39.07v68.23h11.75V140.88a27.31,27.31,0,1,1,27.31,27.31v11.75a39.06,39.06,0,1,0,0-78.13"/><path class="cls-1" d="M526.8,101.82a39.07,39.07,0,1,0,39.06,39.06,39.11,39.11,0,0,0-39.06-39.06m2.79,11.89a27.32,27.32,0,0,1,0,54.35c-.92.09-1.84.14-2.79.14a27.32,27.32,0,0,1,0-54.63c.95,0,1.87,0,2.79.14"/><path class="cls-1" d="M686.41,135.16a22,22,0,0,0-2.29-.12H675.3a10.7,10.7,0,1,1,0-21.4h25.35V101.89H675.3a22.45,22.45,0,1,0,0,44.9h8.82a10.71,10.71,0,0,1,0,21.42H658.77V180h25.35a21.85,21.85,0,0,0,2.29-.12,22.46,22.46,0,0,0,0-44.68"/><path class="cls-1" d="M106.42,115.88a29,29,0,0,1,15.15-4.27v-7.84a36.86,36.86,0,0,0-19.72,5.73,37.23,37.23,0,0,0-9.53,8.62V107.7H84.49v32.62c0,.19,0,.37,0,.57h0V178h7.84V140.36a29.25,29.25,0,0,1,14.09-24.47"/><path class="cls-1" d="M38.36,103.77A37.15,37.15,0,0,0,1.25,140.88v68.23H9.09V140.88a29.27,29.27,0,1,1,29.27,29.27V178a37.11,37.11,0,1,0,0-74.22"/><path class="cls-1" d="M158,103.77h0a37.09,37.09,0,1,0,36.35,29.64A37.14,37.14,0,0,0,158,103.77m0,66.38A29.27,29.27,0,1,1,186.68,135a29.63,29.63,0,0,1,0,11.79A29.34,29.34,0,0,1,158,170.16"/><path class="cls-1" d="M268.67,140.89a29.27,29.27,0,1,1-29.27-29.27v-7.83a37.11,37.11,0,1,0,37.1,37.1V72.65h-7.83Z"/><path class="cls-1" d="M354,140.89a28.88,28.88,0,0,1-.6,5.89,29.27,29.27,0,0,1-57.95-5.89V107.77H287.6v33.11a37.54,37.54,0,0,0,.19,3.8A37.16,37.16,0,0,0,324.71,178h0a37.08,37.08,0,0,0,37.1-37.11V107.77H354Z"/><path class="cls-1" d="M405.66,170.21a29.27,29.27,0,1,1,0-58.54h20.62v-7.83H405.66a37.11,37.11,0,1,0,0,74.21h20.62v-7.83Z"/><polygon class="cls-1" points="480.72 103.81 461.74 103.81 461.74 72.65 453.9 72.65 453.9 103.81 434.92 103.81 434.92 111.65 453.9 111.65 453.9 178 461.74 178 461.74 111.65 480.72 111.65 480.72 103.81"/><path class="cls-1" d="M937.62,85.55s0-.07,0-.11a1.3,1.3,0,0,0-.32-.63l-.57-.58C918,64.79,899,48.32,880.35,35.3a1.39,1.39,0,0,0-.56-.21C832.79,2.56,800.55.36,792.85.36c-1.68,0-2.55.09-2.55.09l0,0a1.3,1.3,0,0,0-.63.27l-.06.06a1.33,1.33,0,0,0-.39.6l-.12.45Q787.55,7,786.22,12c-.18.69-.34,1.36-.52,2q-1.07,4.1-2,8.15c-.24,1-.46,2-.69,3-.53,2.27-1,4.53-1.53,6.77-.28,1.29-.53,2.55-.79,3.82-.38,1.85-.75,3.69-1.1,5.52-.3,1.57-.57,3.11-.85,4.65s-.51,2.9-.75,4.33c-.31,1.88-.59,3.71-.86,5.53-.16,1-.32,2.09-.46,3.12-.31,2.24-.59,4.42-.85,6.58-.07.6-.15,1.2-.22,1.8q-.47,4.14-.82,8.09v0h0c-5.74,65.71,13.75,93.91,14.84,95.42a1.14,1.14,0,0,0,.26.22.78.78,0,0,0,.16.14,1.3,1.3,0,0,0,.65.19,1.33,1.33,0,0,0,.32,0l.16,0q5.35-1.33,10.56-2.74l1.83-.52q4.19-1.16,8.28-2.36l2.8-.86c2.27-.69,4.52-1.39,6.75-2.1l3.63-1.21c1.81-.6,3.62-1.2,5.4-1.82,1.5-.53,3-1.06,4.42-1.59s2.78-1,4.14-1.52c1.78-.67,3.52-1.35,5.24-2l2.89-1.15c2.13-.86,4.2-1.73,6.24-2.61l1.52-.65c66-28.7,81.9-62.16,82.69-63.93,0,0,0,0,0-.06A1.29,1.29,0,0,0,937.62,85.55ZM815.48,161.83h0c-2.81.87-5.69,1.72-8.62,2.56l-1.9.53q-3.48,1-7.1,1.94l-1.38.36A294.61,294.61,0,0,0,839,124.52a164.64,164.64,0,0,0,20.25,20.71A354,354,0,0,1,815.48,161.83Zm23.45-41.55c-13.08-16.52-22.64-34.71-29.57-51.79a192.68,192.68,0,0,1,28.11-2,230.49,230.49,0,0,1,31.6,2.26C861.56,88.13,850.47,105.58,838.94,120.29ZM790,8.36c.19,1.21.41,2.59.67,4.09L788.5,13.9c.36-1.39.72-2.78,1.1-4.19C789.72,9.26,789.84,8.81,790,8.36Zm-2.48,9.41,3.65-2.47q.62,3.39,1.48,7.46l-7.56,5.1q1-4.5,2.18-9.14C787.32,18.41,787.41,18.09,787.49,17.78Zm80,48.06c-3.54-.47-7.17-.84-10.85-1.16l18-12.23c-1,3.65-2.22,7.29-3.52,10.92Zm-26.92-2,37.3-25.34q-.93,5-2.21,10L852.38,64.34C848.49,64.07,844.53,63.93,840.52,63.87Zm37.41-13.69,9.42-6.4q2.91,2.19,5.9,4.52L874.8,60.83C876,57.29,877,53.74,877.93,50.19Zm7.18-8.08-6.18,4.2q.88-3.75,1.58-7.5C882,39.88,883.56,41,885.11,42.1ZM835.84,63.85c-4.48,0-8.93.2-13.31.52L870.3,31.92q3.13,2,6.35,4.21Zm-18.77,1c-2.94.3-5.86.65-8.72,1.09-.39-1-.75-1.94-1.12-2.91l54.06-36.69c2.16,1.27,4.35,2.59,6.6,4Zm-10.8-4.37Q805,57,803.84,53.63l48-32.56c2.25,1.18,4.57,2.47,6.92,3.81ZM803,51q-1.18-3.59-2.19-7l41-27.85c2.36,1.09,4.8,2.28,7.3,3.55Zm-7.3-15.46q.93,3.54,2,7.32L780,54.92c.48-3.21,1-6.48,1.62-9.85Zm-13.4,5.85q.91-4.8,2-9.8l9-6.06c.52,2.3,1.1,4.74,1.74,7.29Zm16.21,4.15q1,3.43,2.21,7L778.27,67.78c.33-3,.73-6.14,1.18-9.31ZM800,41.32c-.72-2.52-1.4-5-2-7.33l33.13-22.37q3.77,1.45,7.85,3.24ZM797.3,31.26q-1-3.84-1.71-7.3L819.69,7.69c2.64.79,5.43,1.71,8.39,2.79ZM795,21.17c-.57-2.73-1.06-5.25-1.46-7.48l13.52-9.13c2.77.53,5.88,1.24,9.31,2.18ZM777.9,71.23l23.67-16.06Q802.72,58.55,804,62l-10.07,6.84a163,163,0,0,0-16.25,4.7C777.76,72.79,777.83,72,777.9,71.23ZM805,64.58c.23.61.47,1.21.71,1.82q-2.41.45-4.75.92Zm68.32.49,22.15-15q2.79,2.22,5.64,4.6L881.41,68.05c-2.81-.53-5.72-1-8.68-1.45C872.92,66.09,873.1,65.58,873.28,65.07Zm29.91-8.69c1.83,1.55,3.68,3.16,5.54,4.79L894.6,70.84c-3.05-.72-6.26-1.41-9.54-2.07ZM910.8,63c1.77,1.57,3.55,3.2,5.35,4.85L907,74.07c-2.82-.8-5.82-1.6-8.94-2.38Zm7.34,6.7q2.54,2.38,5.11,4.85l-4.61,3.12c-2.57-.85-5.35-1.73-8.36-2.63Zm7.05,6.75q2.32,2.27,4.67,4.62l1,1c-2.37-.93-5.44-2.06-9-3.31ZM803.29,3.91,793,10.83c-.61-3.67-1-6.32-1.14-7.81h.94A70.8,70.8,0,0,1,803.29,3.91ZM777.42,76.49a181.53,181.53,0,0,1,29.25-7.57c7.1,17.62,17,36.46,30.57,53.51A285.34,285.34,0,0,1,791,168.18C787.52,162.41,772.72,134,777.42,76.49ZM861.88,144a161.58,161.58,0,0,1-21.24-21.59c11.93-15.13,23.43-33.19,31.15-53.28a271.3,271.3,0,0,1,62.7,17.25C931.25,92.25,914.07,119.28,861.88,144Z"/></svg>