<svg id="Layer_1" data-name="Layer 1" xmlns="http://www.w3.org/2000/svg" viewBox="0 0 706.96 301"><defs><style>.cls-1{fill:#f1f2f2;}</style></defs><title>pO_Logo</title><path class="cls-1" d="M610.52,193.6a39.15,39.15,0,0,0-39.1,39.1V301h11.76V232.7A27.34,27.34,0,1,1,610.52,260V271.8a39.1,39.1,0,1,0,0-78.2"/><path class="cls-1" d="M527,193.6a39.1,39.1,0,1,0,39.1,39.1A39.15,39.15,0,0,0,527,193.6m2.79,11.9a27.35,27.35,0,0,1,0,54.4c-.92.09-1.85.14-2.79.14a27.34,27.34,0,0,1,0-54.68,27.74,27.74,0,0,1,2.79.14"/><path class="cls-1" d="M686.77,227a22.6,22.6,0,0,0-2.29-.12h-8.82a10.71,10.71,0,1,1,0-21.42H701V193.67H675.65a22.48,22.48,0,0,0-22.47,22.47,22.24,22.24,0,0,0,.46,4.52,22.51,22.51,0,0,0,22,17.95h8.83a10.72,10.72,0,0,1,0,21.43H659.1v11.77h25.38A22.48,22.48,0,0,0,686.77,227Z"/><path class="cls-1" d="M106.24,207.68a29,29,0,0,1,15.16-4.28v-7.84a36.86,36.86,0,0,0-19.73,5.74,37.31,37.31,0,0,0-9.54,8.63V199.48H84.29v32.65c0,.19,0,.37,0,.57h0v37.15h7.85V232.17a29.27,29.27,0,0,1,14.11-24.5"/><path class="cls-1" d="M38.12,195.56A37.19,37.19,0,0,0,1,232.7V301H8.82V232.7A29.3,29.3,0,1,1,38.12,262v7.84a37.15,37.15,0,1,0,0-74.29"/><path class="cls-1" d="M157.87,195.56h0a37.13,37.13,0,1,0,36.39,29.67,37.18,37.18,0,0,0-36.39-29.67m0,66.45a29.28,29.28,0,1,1,28.71-23.41A29.3,29.3,0,0,1,157.87,262"/><path class="cls-1" d="M268.64,232.71a29.3,29.3,0,1,1-29.3-29.3v-7.84a37.14,37.14,0,1,0,37.14,37.14v-68.3h-7.84Z"/><path class="cls-1" d="M354,232.71a29.3,29.3,0,0,1-58.45,3,29.91,29.91,0,0,1-.15-3V199.56h-7.84v33.14a37.16,37.16,0,0,0,37.14,37.15h0a37.13,37.13,0,0,0,37.14-37.15V199.56H354Z"/><path class="cls-1" d="M405.76,262.05a29.3,29.3,0,1,1,0-58.6h20.63v-7.84H405.76a37.14,37.14,0,1,0,0,74.28h20.63v-7.84Z"/><polygon class="cls-1" points="480.89 195.6 461.89 195.6 461.89 164.41 454.05 164.41 454.05 195.6 435.05 195.6 435.05 203.44 454.05 203.44 454.05 269.85 461.89 269.85 461.89 203.44 480.89 203.44 480.89 195.6"/><path class="cls-1" d="M414.45,60.72s0,0,0-.07a.91.91,0,0,0-.22-.44l-.4-.41A271.06,271.06,0,0,0,374.5,25.68a1,1,0,0,0-.39-.15C341.33,2.85,318.84,1.31,313.47,1.31c-1.17,0-1.78.06-1.78.06h0a.91.91,0,0,0-.44.18l0,0a.93.93,0,0,0-.27.42l-.09.31q-1,3.58-2,7.11c-.13.48-.24,1-.36,1.43q-.74,2.86-1.43,5.69c-.17.7-.32,1.38-.48,2.08-.37,1.58-.73,3.16-1.07,4.72-.19.9-.37,1.78-.55,2.67-.26,1.29-.53,2.57-.77,3.85-.21,1.1-.4,2.17-.59,3.24s-.36,2-.53,3c-.22,1.31-.41,2.59-.6,3.86-.11.73-.22,1.46-.32,2.18-.22,1.56-.41,3.08-.59,4.59,0,.42-.1.84-.15,1.25q-.33,2.89-.57,5.65h0c-4,45.83,9.59,65.5,10.35,66.55a.79.79,0,0,0,.18.16.54.54,0,0,0,.11.1.91.91,0,0,0,.46.13l.22,0,.11,0q3.73-.93,7.36-1.91l1.28-.36q2.92-.81,5.78-1.65l2-.6c1.58-.48,3.15-1,4.7-1.46l2.53-.84c1.26-.42,2.52-.84,3.77-1.27l3.08-1.11,2.89-1.06c1.24-.47,2.45-.94,3.66-1.41l2-.8c1.49-.6,2.93-1.21,4.35-1.82l1.06-.45c46.06-20,57.12-43.35,57.68-44.59,0,0,0,0,0,0A.9.9,0,0,0,414.45,60.72Zm-85.19,53.2h0c-2,.61-4,1.2-6,1.79l-1.33.37q-2.43.68-5,1.35l-1,.25a205.48,205.48,0,0,0,29.62-29.79,114.83,114.83,0,0,0,14.12,14.44A246.93,246.93,0,0,1,329.26,113.93Zm16.36-29A147.8,147.8,0,0,1,325,48.83a134.39,134.39,0,0,1,19.61-1.42,160.76,160.76,0,0,1,22,1.58C361.4,62.52,353.66,74.7,345.62,85ZM311.46,6.89c.13.85.28,1.8.46,2.85l-1.49,1c.25-1,.5-1.94.77-2.92Zm-1.73,6.57,2.55-1.72q.43,2.36,1,5.2L308,20.5q.71-3.14,1.52-6.38ZM365.5,47c-2.47-.33-5-.58-7.57-.81l12.55-8.53c-.72,2.54-1.55,5.08-2.46,7.61Zm-18.78-1.37,26-17.67q-.65,3.49-1.54,7l-16.2,11C352.29,45.75,349.52,45.65,346.73,45.61Zm26.09-9.55,6.57-4.46q2,1.52,4.11,3.15l-12.87,8.74C371.46,41,372.17,38.54,372.82,36.06Zm5-5.64-4.31,2.93q.62-2.62,1.1-5.23C375.68,28.87,376.74,29.63,377.83,30.42ZM343.46,45.59c-3.13,0-6.23.14-9.28.36L367.5,23.32q2.18,1.4,4.43,2.94Zm-13.09.72c-2.05.21-4.08.46-6.09.76-.27-.68-.52-1.35-.78-2l37.71-25.59c1.51.89,3,1.8,4.6,2.79Zm-7.53-3.05q-.89-2.43-1.69-4.79L354.6,15.75c1.57.83,3.19,1.72,4.83,2.66Zm-2.3-6.61q-.82-2.5-1.53-4.9l28.62-19.43c1.65.76,3.35,1.59,5.09,2.48Zm-5.09-10.78q.65,2.47,1.41,5.11l-12.38,8.4c.34-2.24.71-4.52,1.13-6.87Zm-9.34,4.08q.63-3.35,1.39-6.83l6.25-4.23c.36,1.61.76,3.31,1.21,5.08Zm11.3,2.89q.72,2.39,1.54,4.89L303.31,48.33c.23-2.11.51-4.28.82-6.5Zm1.06-3c-.5-1.76-1-3.47-1.4-5.11l23.11-15.6q2.63,1,5.48,2.26Zm-1.88-7q-.67-2.68-1.19-5.09L332.2,6.42C334,7,336,7.61,338,8.37Zm-1.61-7c-.4-1.9-.74-3.66-1-5.22l9.43-6.37c1.93.37,4.1.86,6.49,1.52ZM303.05,50.74l16.51-11.2q.8,2.36,1.7,4.78l-7,4.77a113.71,113.71,0,0,0-11.33,3.28C303,51.83,303,51.29,303.05,50.74Zm18.88-4.64.5,1.27q-1.68.31-3.31.64Zm47.65.34L385,36Q387,37.5,389,39.16l-13.71,9.36c-2-.37-4-.7-6.05-1C369.32,47.16,369.45,46.8,369.58,46.44Zm20.86-6.06c1.27,1.08,2.57,2.2,3.87,3.34l-9.87,6.74c-2.13-.5-4.36-1-6.65-1.44Zm5.31,4.6c1.23,1.09,2.48,2.23,3.73,3.38l-6.39,4.35c-2-.56-4.06-1.12-6.24-1.66Zm5.12,4.67q1.77,1.66,3.57,3.39l-3.22,2.18c-1.79-.59-3.73-1.21-5.83-1.83Zm4.92,4.7q1.62,1.58,3.26,3.22l.67.68c-1.66-.65-3.8-1.44-6.3-2.31Zm-85-50.58-7.15,4.83c-.43-2.56-.67-4.41-.79-5.45h.66A49.38,49.38,0,0,1,320.76,3.79Zm-18,50.62a126.61,126.61,0,0,1,20.4-5.28,149.7,149.7,0,0,0,21.32,37.32,199,199,0,0,1-32.25,31.91C309.76,114.33,299.44,94.52,302.72,54.41Zm58.91,47.08a112.7,112.7,0,0,1-14.81-15.06c8.32-10.55,16.34-23.15,21.73-37.16a189.22,189.22,0,0,1,43.73,12C410,65.4,398,84.25,361.62,101.49Z"/><path class="cls-1" d="M586.16,62.39a.86.86,0,0,0,.16-.48.91.91,0,0,0-.28-.63h0l0,0s0-.07-.08-.09l-1.23-1.27a271.07,271.07,0,0,0-38.21-33.61.86.86,0,0,0-.31-.12c-33-23.31-55.65-24.89-61-24.89-1,0-1.52,0-1.52,0l0,0a.87.87,0,0,0-.44.18l0,0a.91.91,0,0,0-.28.42h0c-.75,2.51-1.46,5-2.14,7.48-.1.38-.19.75-.3,1.12-.54,2-1.07,4-1.56,6-.16.63-.3,1.24-.45,1.86-.4,1.66-.8,3.32-1.16,5-.19.84-.36,1.66-.54,2.49-.29,1.35-.58,2.7-.84,4-.21,1-.4,2.07-.59,3.1s-.4,2.12-.58,3.17c-.22,1.27-.42,2.52-.62,3.77-.12.76-.24,1.52-.36,2.27-.23,1.55-.43,3.06-.63,4.56-.06.43-.12.86-.17,1.29-6.14,50,8.41,71.48,9.2,72.59a1.09,1.09,0,0,0,.18.16s.07.07.11.1a.94.94,0,0,0,.46.13.87.87,0,0,0,.21,0l.2-.05q3.74-.89,7.38-1.85l.91-.25q3.15-.84,6.24-1.73l1.5-.44c1.76-.52,3.51-1,5.23-1.58l2.08-.66c1.44-.46,2.87-.93,4.28-1.41l2.64-.92,3.37-1.21c1.1-.41,2.18-.81,3.25-1.23l2.46-1c1.35-.53,2.66-1.07,4-1.61l1.49-.63c1.68-.71,3.32-1.43,4.91-2.16l.22-.09h0C574.55,85.38,585.32,64.16,586.16,62.39ZM487,118.12c1.41-1.11,3.18-2.55,5.21-4.28l.18,2.87c-1.47.4-3,.79-4.46,1.18ZM481.37,14c.11-.43.22-.86.34-1.29q.65-2.46,1.36-5l.27-1A206,206,0,0,0,494,47.57a115,115,0,0,0-19.69,4.86A255.28,255.28,0,0,1,481.37,14ZM517,85.56c-9-11.43-15.6-24.32-20.38-36.5A134.71,134.71,0,0,1,515,47.81a160.5,160.5,0,0,1,23.38,1.78A148.5,148.5,0,0,1,517,85.56Zm2.35,0q2.3-2.95,4.55-6.11l1,15.23c-1.83-1.92-3.61-3.93-5.33-6ZM525,97.52l.51,7.95q-2.35,1-4.82,2l-1-15.58C521.43,93.82,523.22,95.69,525,97.52ZM525.57,77q2.31-3.37,4.5-7l2,31.53q-2.69-2.34-5.27-4.9ZM517,88.53l.74.9,1.21,18.71c-1.56.6-3.16,1.19-4.78,1.77L513,93.22Q515,91,517,88.53Zm-5.68,6.66,1,15.38c-1.58.55-3.21,1.1-4.86,1.64l-.8-12C508.16,98.61,509.71,96.93,511.28,95.18ZM504.9,102l.72,10.81c-1.58.51-3.19,1-4.83,1.51l-.51-7.77Q502.52,104.41,504.9,102Zm-6.37,6.2.43,6.65c-1.56.46-3.13.92-4.75,1.37l-.24-3.9C495.4,111.07,496.93,109.69,498.53,108.2Zm28.82-3.49L527,99.5q1.95,1.87,4,3.61C529.79,103.64,528.59,104.17,527.35,104.7Zm4.39-37.46c1.54-2.66,3-5.39,4.42-8.21l2.61,40.36c-1.55.78-3.15,1.56-4.8,2.34ZM537.8,55.6q1.3-2.81,2.46-5.72l2.14.35,2.93,45.68c-1.53.85-3.12,1.7-4.76,2.55ZM557,36.68c1.77,1.44,3.55,2.92,5.37,4.48l.73,11.89c-1.64-.47-3.36-.93-5.14-1.38Zm-.93,14.5q-2.44-.6-5-1.16l-1.22-19c1.71,1.28,3.45,2.63,5.2,4Zm-8.19-21.54,1.28,20q-2.45-.51-5-1l-.55-8.54a116.15,116.15,0,0,0,2.95-11.45Zm-5.82,15.27.22,3.42-1.35-.22C541.32,47,541.69,46,542.05,44.92Zm2.22,5.65q2.56.47,5,1l2.6,40.51q-2.28,1.42-4.76,2.84ZM551.17,52q2.58.57,5,1.17l2.22,34.65c-1.51,1.05-3.07,2.11-4.74,3.17Zm6.91,1.66q2.67.69,5.13,1.4l1.73,27.94q-2.22,1.76-4.75,3.58Zm7,2q2.66.8,5,1.57l1.25,20.3q-2.12,2-4.67,4.08Zm-.12-2-.66-10.71q2.57,2.26,5.21,4.69l.47,7.57Q567.63,54.38,565,53.6Zm6.52-4.2.25.23.66.63q1.9,1.8,3.82,3.69l.5.5.19,3.08c-1.5-.55-3.2-1.14-5-1.76Zm7.21,7c.68.69,1.37,1.37,2.06,2.07l.76.78c-.79-.32-1.71-.67-2.7-1Zm5.35,5.92a48.07,48.07,0,0,1-4.59,6.52l-.53-8.6C581.35,61.19,583.1,61.93,584.07,62.35Zm-39.2-34.87a128.23,128.23,0,0,1-5.82,20.36A162.41,162.41,0,0,0,515,46a136.34,136.34,0,0,0-19.09,1.33A199.64,199.64,0,0,1,484.71,3.1h.4C490.39,3.1,512.49,4.64,544.88,27.48Zm-70.76,27a113,113,0,0,1,20.58-5.15c4.89,12.57,11.69,25.93,21.07,37.73a189.92,189.92,0,0,1-32.69,31.72C480.69,114.73,470.48,94.76,474.12,54.48Zm99,21.27-1.11-18c1.86.63,3.53,1.23,5,1.78l.7,11.36C576.44,72.4,574.91,74,573.14,75.76Z"/><path class="cls-1" d="M154.62,117l2.22-.68c1.5-.45,3-.91,4.46-1.38,1-.3,1.89-.62,2.83-.93l3.5-1.18,3.38-1.2,2.63-1c1.35-.5,2.65-1,3.95-1.52l1.79-.71c1.56-.63,3.08-1.25,4.57-1.89l.93-.39c45.9-19.81,57.38-42.94,58.19-44.7a.83.83,0,0,0,.15-.46.91.91,0,0,0-.29-.63h0l-.07-.07s0-.05-.06-.07l-.81-.83a271.73,271.73,0,0,0-39-33.9.88.88,0,0,0-.37-.14C169.63,2.33,147,.77,141.56.77c-1.14,0-1.72.06-1.72.06l0,0a1,1,0,0,0-.42.18l-.08.07a.89.89,0,0,0-.26.4h0c-.74,2.53-1.43,5-2.09,7.51-.1.39-.19.77-.3,1.16q-.8,3-1.52,6c-.16.64-.29,1.26-.44,1.89-.39,1.66-.77,3.31-1.13,5-.18.85-.35,1.68-.53,2.53-.28,1.35-.56,2.69-.81,4-.21,1.06-.39,2.11-.58,3.15s-.38,2.1-.55,3.14c-.22,1.29-.41,2.55-.6,3.81-.11.75-.23,1.51-.34,2.26-.22,1.56-.42,3.09-.6,4.59-.05.42-.11.85-.15,1.27-5.84,50.2,8.88,71.62,9.68,72.73a.9.9,0,0,0,.18.16.61.61,0,0,0,.12.1.92.92,0,0,0,.46.13l.22,0c2.54-.62,5-1.27,7.51-1.93l1.47-.41C150.89,118,152.77,117.49,154.62,117Zm-18-5.55,7.76,3.8c-2,1.65-3.5,2.79-4.35,3.42A48.68,48.68,0,0,1,136.66,111.41Zm2.93-105c.26,1.78.64,4,1.15,6.66l-2.59-1.27c.38-1.46.76-2.93,1.17-4.42Zm-1.92,7.23,3.52,1.73c.38,1.86.82,3.87,1.33,6l-6-2.92c.37-1.58.75-3.18,1.16-4.8Zm19.48,100.61c-1.9.58-3.85,1.15-5.83,1.72l-.74.21-2.78-1.36c1.23-1,2.58-2.21,4-3.51l5.75,2.82-.18.06Zm18.69-6.48c-2.13.83-4.3,1.65-6.56,2.46L158.56,105q1.83-1.8,3.75-3.79Zm-12.18-8q1.73-1.83,3.49-3.8l17.11,8.33c-2,.86-4,1.7-6.08,2.54Zm3.15,11.32q-3.24,1.12-6.67,2.22l-6.82-3.35c1.22-1.12,2.5-2.32,3.83-3.6Zm19.69-7.77-18.06-8.8q1.65-1.89,3.32-3.89l7.69,3.75a113.39,113.39,0,0,0,8.54,8.24ZM173,89.15l.86-1.07q1.12,1.32,2.23,2.57Zm-41.7-40.94,4.7,2.29q-2.59.78-5.1,1.66C131,50.86,131.13,49.55,131.28,48.21Zm20.66,2.48c1,2.31,2,4.65,3.06,7L141.25,51c2.58-.65,5.21-1.19,7.88-1.67Zm-13.24-.94-7.18-3.49q.3-2.54.69-5.18l14.08,6.85C143.7,48.45,141.19,49.07,138.7,49.75Zm17.59,10.63q1.79,3.68,3.84,7.37L131.64,53.89q3.37-1.19,6.88-2.16Zm-25.7-4.93,31.16,15.17c1.55,2.66,3.2,5.3,5,7.92L130.25,60.79C130.33,59,130.45,57.27,130.59,55.45Zm-.43,7.37,38.73,18.84c1.2,1.67,2.45,3.32,3.75,5l-1.38,1.7L130,68.23C130,66.47,130.09,64.66,130.16,62.81ZM173.83,85.1a148.89,148.89,0,0,1-20.71-36.46,127.52,127.52,0,0,1,19.09-1.41A159.83,159.83,0,0,1,195,49,148.87,148.87,0,0,1,173.83,85.1ZM149.39,47.37l-16.91-8.23c.25-1.65.53-3.34.83-5l15.09,7.3q1,2.84,2.13,5.77ZM133.64,32.19c.3-1.65.63-3.35,1-5.05l10.86,5.25c.63,2.11,1.32,4.3,2.07,6.53ZM135,25.26c.34-1.63.69-3.28,1.08-5l7,3.41c.5,2,1.05,4.1,1.67,6.28Zm35,64.53q-1.68,2-3.34,3.88L130.13,75.85c-.07-1.79-.11-3.64-.11-5.56Zm-4.62,5.32q-1.78,2-3.51,3.79L130.63,83.66c-.17-1.83-.31-3.72-.41-5.7Zm-4.87,5.2c-1.28,1.32-2.54,2.59-3.76,3.78L131.61,91.75q-.43-2.8-.77-5.91Zm-5.18,5.16c-1.34,1.28-2.62,2.48-3.85,3.59l-18.3-9Q132.56,97.28,132,94ZM150,110.41c-1.46,1.3-2.82,2.48-4,3.5l-10.25-5c-.65-1.88-1.31-4-1.94-6.43Zm-6,7.54c.67-.53,1.43-1.15,2.26-1.84l1.62.79-2.89.79Zm45.87-16.18A127.92,127.92,0,0,1,175,86.6a150.71,150.71,0,0,0,21.91-37.36,200.53,200.53,0,0,1,44,12.18C238.66,65.56,226.55,84.5,189.87,101.76Zm39-52.75.11.1q2.13,2,4.3,4.11l1,1c1.15,1.12,2.31,2.28,3.47,3.45l.73.74a206.12,206.12,0,0,0-40.85-11,115.52,115.52,0,0,0,5.52-19.55A249.59,249.59,0,0,1,228.83,49Zm-27.39-22.3a113.58,113.58,0,0,1-5.71,20.45,161.63,161.63,0,0,0-23.53-1.8,129.06,129.06,0,0,0-19.8,1.5A190.37,190.37,0,0,1,141,2.64h.6C146.85,2.63,169,4.16,201.44,26.72Z"/></svg>