<svg id="Layer_1" data-name="Layer 1" xmlns="http://www.w3.org/2000/svg" viewBox="0 0 707.71 300.93"><defs><style>.cls-1{fill:#939598;}</style></defs><title>pO_Logo</title><path class="cls-1" d="M611.28,193.53a39.15,39.15,0,0,0-39.1,39.1v68.3h11.76v-68.3A27.34,27.34,0,1,1,611.28,260v11.76a39.1,39.1,0,1,0,0-78.2"/><path class="cls-1" d="M527.77,193.53a39.1,39.1,0,1,0,39.1,39.1,39.15,39.15,0,0,0-39.1-39.1m2.79,11.9a27.35,27.35,0,0,1,0,54.4c-.92.09-1.85.14-2.79.14a27.34,27.34,0,0,1,0-54.68,27.74,27.74,0,0,1,2.79.14"/><path class="cls-1" d="M687.53,226.91a22.6,22.6,0,0,0-2.29-.12h-8.82a10.71,10.71,0,1,1,0-21.42h25.38V193.61H676.4a22.48,22.48,0,0,0-22.47,22.47,22.24,22.24,0,0,0,.46,4.52,22.51,22.51,0,0,0,22,17.95h8.83a10.72,10.72,0,0,1,0,21.43H659.86v11.77h25.38a22.48,22.48,0,0,0,2.29-44.84Z"/><path class="cls-1" d="M107,207.61a29,29,0,0,1,15.16-4.28v-7.84a36.86,36.86,0,0,0-19.73,5.74,37.31,37.31,0,0,0-9.54,8.63V199.41H85v32.65c0,.19,0,.37,0,.57h0v37.15h7.85V232.1A29.27,29.27,0,0,1,107,207.61"/><path class="cls-1" d="M38.87,195.49A37.19,37.19,0,0,0,1.72,232.63v68.3H9.57v-68.3a29.3,29.3,0,1,1,29.3,29.3v7.84a37.15,37.15,0,1,0,0-74.29"/><path class="cls-1" d="M158.62,195.49h0A37.13,37.13,0,1,0,195,225.16a37.18,37.18,0,0,0-36.39-29.67m0,66.45a29.28,29.28,0,1,1,28.71-23.41,29.3,29.3,0,0,1-28.71,23.41"/><path class="cls-1" d="M269.39,232.64a29.3,29.3,0,1,1-29.3-29.3V195.5a37.14,37.14,0,1,0,37.14,37.14v-68.3h-7.84Z"/><path class="cls-1" d="M354.79,232.64a29.3,29.3,0,0,1-58.45,3,29.91,29.91,0,0,1-.15-3V199.5h-7.84v33.14a37.16,37.16,0,0,0,37.14,37.15h0a37.13,37.13,0,0,0,37.14-37.15V199.5h-7.84Z"/><path class="cls-1" d="M406.51,262a29.3,29.3,0,1,1,0-58.6h20.63v-7.84H406.51a37.14,37.14,0,1,0,0,74.28h20.63V262Z"/><polygon class="cls-1" points="481.64 195.53 462.64 195.53 462.64 164.34 454.8 164.34 454.8 195.53 435.8 195.53 435.8 203.37 454.8 203.37 454.8 269.78 462.64 269.78 462.64 203.37 481.64 203.37 481.64 195.53"/><path class="cls-1" d="M415.2,60.66s0,0,0-.07a.91.91,0,0,0-.22-.44l-.4-.41a271.06,271.06,0,0,0-39.31-34.12,1,1,0,0,0-.39-.15C342.09,2.78,319.6,1.24,314.23,1.24c-1.17,0-1.78.06-1.78.06h0a.91.91,0,0,0-.44.18l0,0a.93.93,0,0,0-.27.42l-.09.31q-1,3.58-2,7.11c-.13.48-.24,1-.36,1.43q-.74,2.86-1.43,5.69c-.17.7-.32,1.38-.48,2.08-.37,1.58-.73,3.16-1.07,4.72-.19.9-.37,1.78-.55,2.67-.26,1.29-.53,2.57-.77,3.85-.21,1.1-.4,2.17-.59,3.24s-.36,2-.53,3c-.22,1.31-.41,2.59-.6,3.86-.11.73-.22,1.46-.32,2.18-.22,1.56-.41,3.08-.59,4.59,0,.42-.1.84-.15,1.25q-.33,2.89-.57,5.65h0c-4,45.83,9.59,65.5,10.35,66.55a.79.79,0,0,0,.18.16.54.54,0,0,0,.11.1.91.91,0,0,0,.46.13l.22,0,.11,0q3.73-.93,7.36-1.91l1.28-.36q2.92-.81,5.78-1.65l2-.6c1.58-.48,3.15-1,4.7-1.46l2.53-.84c1.26-.42,2.52-.84,3.77-1.27l3.08-1.11,2.89-1.06c1.24-.47,2.45-.94,3.66-1.41l2-.8c1.49-.6,2.93-1.21,4.35-1.82l1.06-.45c46.06-20,57.12-43.35,57.68-44.59,0,0,0,0,0,0A.9.9,0,0,0,415.2,60.66ZM330,113.86h0c-2,.61-4,1.2-6,1.79l-1.33.37q-2.43.68-5,1.35l-1,.25a205.48,205.48,0,0,0,29.62-29.79,114.83,114.83,0,0,0,14.12,14.44A246.93,246.93,0,0,1,330,113.86Zm16.36-29a147.8,147.8,0,0,1-20.62-36.12,134.39,134.39,0,0,1,19.61-1.42,160.76,160.76,0,0,1,22,1.58C362.15,62.46,354.42,74.63,346.37,84.89ZM312.22,6.82c.13.85.28,1.8.46,2.85l-1.49,1c.25-1,.5-1.94.77-2.92Zm-1.73,6.57L313,11.67q.43,2.36,1,5.2l-5.27,3.56q.71-3.14,1.52-6.38Zm55.77,33.52c-2.47-.33-5-.58-7.57-.81l12.55-8.53c-.72,2.54-1.55,5.08-2.46,7.61Zm-18.78-1.37,26-17.67q-.65,3.49-1.54,7l-16.2,11C353,45.68,350.27,45.58,347.48,45.54ZM373.57,36l6.57-4.46q2,1.52,4.11,3.15l-12.87,8.74C372.21,41,372.92,38.47,373.57,36Zm5-5.64-4.31,2.93q.62-2.62,1.1-5.23C376.43,28.8,377.5,29.56,378.58,30.36ZM344.21,45.52c-3.13,0-6.23.14-9.28.36l33.32-22.63q2.18,1.4,4.43,2.94Zm-13.09.72c-2.05.21-4.08.46-6.09.76-.27-.68-.52-1.35-.78-2L362,19.38c1.51.89,3,1.8,4.6,2.79Zm-7.53-3.05q-.89-2.43-1.69-4.79l33.46-22.71c1.57.83,3.19,1.72,4.83,2.66Zm-2.3-6.61q-.82-2.5-1.53-4.9l28.62-19.43c1.65.76,3.35,1.59,5.09,2.48ZM316.2,25.79q.65,2.47,1.41,5.11l-12.38,8.4c.34-2.24.71-4.52,1.13-6.87Zm-9.34,4.08q.63-3.35,1.39-6.83l6.25-4.23c.36,1.61.76,3.31,1.21,5.08Zm11.3,2.89q.72,2.39,1.54,4.89L304.06,48.27c.23-2.11.51-4.28.82-6.5Zm1.06-3c-.5-1.76-1-3.47-1.4-5.11L340.92,9.1q2.63,1,5.48,2.26Zm-1.88-7q-.67-2.68-1.19-5.09L332.95,6.35c1.84.55,3.79,1.19,5.85,1.94Zm-1.61-7c-.4-1.9-.74-3.66-1-5.22l9.43-6.37c1.93.37,4.1.86,6.49,1.52ZM303.81,50.67l16.51-11.2q.8,2.36,1.7,4.78L315,49a113.71,113.71,0,0,0-11.33,3.28C303.71,51.76,303.75,51.22,303.81,50.67ZM322.68,46l.5,1.27q-1.68.31-3.31.64Zm47.65.34,15.45-10.49q1.95,1.55,3.94,3.21L376,48.46c-2-.37-4-.7-6.05-1C370.08,47.09,370.2,46.73,370.33,46.38Zm20.86-6.06c1.27,1.08,2.57,2.2,3.87,3.34l-9.87,6.74c-2.13-.5-4.36-1-6.65-1.44Zm5.31,4.6c1.23,1.09,2.48,2.23,3.73,3.38l-6.39,4.35c-2-.56-4.06-1.12-6.24-1.66Zm5.12,4.67q1.77,1.66,3.57,3.39L402,55.15c-1.79-.59-3.73-1.21-5.83-1.83Zm4.92,4.7q1.62,1.58,3.26,3.22l.67.68c-1.66-.65-3.8-1.44-6.3-2.31Zm-85-50.58-7.15,4.83c-.43-2.56-.67-4.41-.79-5.45h.66A49.38,49.38,0,0,1,321.51,3.72Zm-18,50.62a126.61,126.61,0,0,1,20.4-5.28,149.7,149.7,0,0,0,21.32,37.32,199,199,0,0,1-32.25,31.91C310.51,114.26,300.19,94.46,303.47,54.34Zm58.91,47.08a112.7,112.7,0,0,1-14.81-15.06c8.32-10.55,16.34-23.15,21.73-37.16a189.22,189.22,0,0,1,43.73,12C410.76,65.33,398.78,84.19,362.37,101.42Z"/><path class="cls-1" d="M586.91,62.32a.86.86,0,0,0,.16-.48.91.91,0,0,0-.28-.63h0l0,0s0-.07-.08-.09l-1.23-1.27a271.07,271.07,0,0,0-38.21-33.61.86.86,0,0,0-.31-.12c-33-23.31-55.65-24.89-61-24.89-1,0-1.52,0-1.52,0l0,0a.87.87,0,0,0-.44.18l0,0a.91.91,0,0,0-.28.42h0c-.75,2.51-1.46,5-2.14,7.48-.1.38-.19.75-.3,1.12-.54,2-1.07,4-1.56,6-.16.63-.3,1.24-.45,1.86-.4,1.66-.8,3.32-1.16,5-.19.84-.36,1.66-.54,2.49-.29,1.35-.58,2.7-.84,4-.21,1-.4,2.07-.59,3.1s-.4,2.12-.58,3.17c-.22,1.27-.42,2.52-.62,3.77-.12.76-.24,1.52-.36,2.27-.23,1.55-.43,3.06-.63,4.56-.06.43-.12.86-.17,1.29-6.14,50,8.41,71.48,9.2,72.59a1.09,1.09,0,0,0,.18.16s.07.07.11.1a.94.94,0,0,0,.46.13.87.87,0,0,0,.21,0l.2-.05q3.74-.89,7.38-1.85l.91-.25q3.15-.84,6.24-1.73l1.5-.44c1.76-.52,3.51-1,5.23-1.58l2.08-.66c1.44-.46,2.87-.93,4.28-1.41l2.64-.92,3.37-1.21c1.1-.41,2.18-.81,3.25-1.23l2.46-1c1.35-.53,2.66-1.07,4-1.61l1.49-.63c1.68-.71,3.32-1.43,4.91-2.16l.22-.09h0C575.31,85.31,586.07,64.09,586.91,62.32Zm-99.16,55.73c1.41-1.11,3.18-2.55,5.21-4.28l.18,2.87c-1.47.4-3,.79-4.46,1.18ZM482.12,13.94c.11-.43.22-.86.34-1.29q.65-2.46,1.36-5l.27-1A206,206,0,0,0,494.77,47.5a115,115,0,0,0-19.69,4.86A255.28,255.28,0,0,1,482.12,13.94ZM517.71,85.5c-9-11.43-15.6-24.32-20.38-36.5a134.71,134.71,0,0,1,18.4-1.25,160.5,160.5,0,0,1,23.38,1.78A148.5,148.5,0,0,1,517.71,85.5Zm2.35,0q2.3-2.95,4.55-6.11l1,15.23c-1.83-1.92-3.61-3.93-5.33-6Zm5.72,11.95.51,7.95q-2.35,1-4.82,2l-1-15.58C522.18,93.75,524,95.62,525.78,97.45ZM526.32,77q2.31-3.37,4.5-7l2,31.53q-2.69-2.34-5.27-4.9Zm-8.61,11.51.74.9,1.21,18.71c-1.56.6-3.16,1.19-4.78,1.77l-1.12-16.68Q515.73,90.89,517.71,88.46ZM512,95.12l1,15.38c-1.58.55-3.21,1.1-4.86,1.64l-.8-12C508.91,98.55,510.47,96.87,512,95.12Zm-6.38,6.81.72,10.81c-1.58.51-3.19,1-4.83,1.51l-.51-7.77Q503.27,104.34,505.65,101.93Zm-6.37,6.2.43,6.65c-1.56.46-3.13.92-4.75,1.37l-.24-3.9C496.15,111,497.68,109.63,499.29,108.13Zm28.82-3.49-.34-5.21q1.95,1.87,4,3.61C530.54,103.57,529.34,104.1,528.11,104.64Zm4.39-37.46c1.54-2.66,3-5.39,4.42-8.21l2.61,40.36c-1.55.78-3.15,1.56-4.8,2.34Zm6.06-11.64q1.3-2.81,2.46-5.72l2.14.35,2.93,45.68c-1.53.85-3.12,1.7-4.76,2.55Zm19.2-18.92c1.77,1.44,3.55,2.92,5.37,4.48L563.84,53c-1.64-.47-3.36-.93-5.14-1.38Zm-.93,14.5q-2.44-.6-5-1.16l-1.22-19c1.71,1.28,3.45,2.63,5.2,4Zm-8.19-21.54,1.28,20q-2.45-.51-5-1l-.55-8.54a116.15,116.15,0,0,0,2.95-11.45Zm-5.82,15.27.22,3.42-1.35-.22C542.07,47,542.44,45.9,542.81,44.85ZM545,50.5q2.56.47,5,1L552.64,92q-2.28,1.42-4.76,2.84Zm6.89,1.38q2.58.57,5,1.17l2.22,34.65c-1.51,1.05-3.07,2.11-4.74,3.17Zm6.91,1.66q2.67.69,5.13,1.4l1.73,27.94q-2.22,1.76-4.75,3.58Zm7,2q2.66.8,5,1.57l1.25,20.3q-2.12,2-4.67,4.08Zm-.12-2-.66-10.71q2.57,2.26,5.21,4.69l.47,7.57Q568.39,54.31,565.74,53.53Zm6.52-4.2.25.23.66.63q1.9,1.8,3.82,3.69l.5.5.19,3.08c-1.5-.55-3.2-1.14-5-1.76Zm7.21,7c.68.69,1.37,1.37,2.06,2.07l.76.78c-.79-.32-1.71-.67-2.7-1Zm5.35,5.92a48.07,48.07,0,0,1-4.59,6.52l-.53-8.6C582.1,61.12,583.85,61.86,584.82,62.28Zm-39.2-34.87a128.23,128.23,0,0,1-5.82,20.36,162.41,162.41,0,0,0-24.07-1.88,136.34,136.34,0,0,0-19.09,1.33A199.64,199.64,0,0,1,485.47,3h.4C491.14,3,513.25,4.57,545.63,27.41Zm-70.76,27a113,113,0,0,1,20.58-5.15c4.89,12.57,11.69,25.93,21.07,37.73a189.92,189.92,0,0,1-32.69,31.72C481.44,114.66,471.23,94.69,474.87,54.41Zm99,21.27-1.11-18c1.86.63,3.53,1.23,5,1.78l.7,11.36C577.2,72.33,575.67,74,573.89,75.69Z"/><path class="cls-1" d="M155.37,116.89l2.22-.68c1.5-.45,3-.91,4.46-1.38,1-.3,1.89-.62,2.83-.93l3.5-1.18,3.38-1.2,2.63-1c1.35-.5,2.65-1,3.95-1.52l1.79-.71c1.56-.63,3.08-1.25,4.57-1.89l.93-.39c45.9-19.81,57.38-42.94,58.19-44.7a.83.83,0,0,0,.15-.46.91.91,0,0,0-.29-.63h0l-.07-.07s0-.05-.06-.07l-.81-.83a271.73,271.73,0,0,0-39-33.9.88.88,0,0,0-.37-.14C170.38,2.26,147.72.7,142.31.7c-1.14,0-1.72.06-1.72.06l0,0a1,1,0,0,0-.42.18L140,1a.89.89,0,0,0-.26.4h0c-.74,2.53-1.43,5-2.09,7.51-.1.39-.19.77-.3,1.16q-.8,3-1.52,6c-.16.64-.29,1.26-.44,1.89-.39,1.66-.77,3.31-1.13,5-.18.85-.35,1.68-.53,2.53-.28,1.35-.56,2.69-.81,4-.21,1.06-.39,2.11-.58,3.15s-.38,2.1-.55,3.14c-.22,1.29-.41,2.55-.6,3.81-.11.75-.23,1.51-.34,2.26-.22,1.56-.42,3.09-.6,4.59-.05.42-.11.85-.15,1.27-5.84,50.2,8.88,71.62,9.68,72.73a.9.9,0,0,0,.18.16.61.61,0,0,0,.12.1.92.92,0,0,0,.46.13l.22,0c2.54-.62,5-1.27,7.51-1.93l1.47-.41C151.64,118,153.52,117.43,155.37,116.89Zm-18-5.55,7.76,3.8c-2,1.65-3.5,2.79-4.35,3.42A48.68,48.68,0,0,1,137.41,111.34Zm2.93-105c.26,1.78.64,4,1.15,6.66l-2.59-1.27c.38-1.46.76-2.93,1.17-4.42Zm-1.92,7.23,3.52,1.73c.38,1.86.82,3.87,1.33,6l-6-2.92c.37-1.58.75-3.18,1.16-4.8Zm19.48,100.61c-1.9.58-3.85,1.15-5.83,1.72l-.74.21-2.78-1.36c1.23-1,2.58-2.21,4-3.51l5.75,2.82-.18.06Zm18.69-6.48c-2.13.83-4.3,1.65-6.56,2.46l-10.73-5.25q1.83-1.8,3.75-3.79Zm-12.18-8q1.73-1.83,3.49-3.8L185,104.22c-2,.86-4,1.7-6.08,2.54ZM167.56,111q-3.24,1.12-6.67,2.22l-6.82-3.35c1.22-1.12,2.5-2.32,3.83-3.6Zm19.69-7.77-18.06-8.8q1.65-1.89,3.32-3.89l7.69,3.75a113.39,113.39,0,0,0,8.54,8.24ZM173.73,89.08l.86-1.07q1.12,1.32,2.23,2.57ZM132,48.14l4.7,2.29q-2.59.78-5.1,1.66C131.75,50.79,131.88,49.48,132,48.14Zm20.66,2.48c1,2.31,2,4.65,3.06,7L142,50.92c2.58-.65,5.21-1.19,7.88-1.67Zm-13.24-.94-7.18-3.49q.3-2.54.69-5.18L147,47.86C144.46,48.38,141.94,49,139.45,49.68ZM157,60.31q1.79,3.68,3.84,7.37L132.4,53.82q3.37-1.19,6.88-2.16Zm-25.7-4.93L162.5,70.54c1.55,2.66,3.2,5.3,5,7.92L131,60.72C131.09,59,131.2,57.2,131.34,55.38Zm-.43,7.37,38.73,18.84c1.2,1.67,2.45,3.32,3.75,5L172,88.24,130.77,68.16C130.79,66.41,130.84,64.6,130.91,62.75ZM174.58,85a148.89,148.89,0,0,1-20.71-36.46A127.52,127.52,0,0,1,173,47.17a159.83,159.83,0,0,1,22.83,1.72A148.87,148.87,0,0,1,174.58,85ZM150.14,47.31l-16.91-8.23c.25-1.65.53-3.34.83-5l15.09,7.3q1,2.84,2.13,5.77ZM134.39,32.12c.3-1.65.63-3.35,1-5.05l10.86,5.25c.63,2.11,1.32,4.3,2.07,6.53Zm1.36-6.93c.34-1.63.69-3.28,1.08-5l7,3.41c.5,2,1.05,4.1,1.67,6.28Zm35,64.53q-1.68,2-3.34,3.88L130.88,75.78c-.07-1.79-.11-3.64-.11-5.56ZM166.17,95q-1.78,2-3.51,3.79L131.38,83.6c-.17-1.83-.31-3.72-.41-5.7Zm-4.87,5.2c-1.28,1.32-2.54,2.59-3.76,3.78L132.36,91.68q-.43-2.8-.77-5.91Zm-5.18,5.16c-1.34,1.28-2.62,2.48-3.85,3.59L134,100q-.66-2.82-1.24-6.09Zm-5.34,4.94c-1.46,1.3-2.82,2.48-4,3.5l-10.25-5c-.65-1.88-1.31-4-1.94-6.43Zm-6,7.54c.67-.53,1.43-1.15,2.26-1.84l1.62.79-2.89.79Zm45.87-16.18a127.92,127.92,0,0,1-14.84-15.16,150.71,150.71,0,0,0,21.91-37.36,200.53,200.53,0,0,1,44,12.18C239.41,65.49,227.3,84.43,190.62,101.69Zm39-52.75.11.1q2.13,2,4.3,4.11l1,1c1.15,1.12,2.31,2.28,3.47,3.45l.73.74a206.12,206.12,0,0,0-40.85-11,115.52,115.52,0,0,0,5.52-19.55A249.59,249.59,0,0,1,229.58,48.95Zm-27.39-22.3a113.58,113.58,0,0,1-5.71,20.45A161.63,161.63,0,0,0,173,45.3a129.06,129.06,0,0,0-19.8,1.5A190.37,190.37,0,0,1,141.71,2.57h.6C147.6,2.56,169.75,4.09,202.19,26.65Z"/></svg>